<svg id="Capa_1" enable-background="new 0 0 512.002 512.002" height="512" viewBox="0 0 512.002 512.002" width="512" xmlns="http://www.w3.org/2000/svg"><g><g><path d="m273.575 107.255c0-17.652-2.383-35.085-12.868-47.659-13.298-15.947-33.317-26.096-55.706-26.096-40.041 0-72.5 32.459-72.5 72.5 0 10.6 2.275 20.668 6.363 29.744 3.646 8.094 10.807 14.984 17.01 21.171 13.115 13.082 30.438 18.383 50.426 18.383 40.039 0 67.275-28.002 67.275-68.043z" fill="#b3e59f"/><path d="m259.591 58.3c3.8 8.8 5.91 18.5 5.91 28.7 0 6.15-.772 12.117-2.216 17.818-.493 1.948-2.123 3.41-4.113 3.694-19.106 2.73-36.299 10.065-50.531 21.676-1.173.957-2.7 1.372-4.182 1.064-3.499-.727-7.115-1.108-10.799-1.133l-.52-.01c-14.571 0-28.316 4.591-39.794 13.116-.031.009-.061.017-.091.026-3.966 1.14-7.022-3.476-4.386-6.651 12.876-15.508 20.631-35.417 20.631-57.101 0-11.38-2.13-22.46-6.21-32.79-18.63 13.11-30.79 34.78-30.79 59.29 0 10.211 2.124 19.92 5.935 28.727-.008-.009-.017-.018-.025-.027.223.448.178.499.753 1.663 11.641 25.222 37.347 42.615 67.056 42.127 38.414-.631 70-31.687 71.242-70.086.622-19.208-6.233-36.796-17.87-50.103z" fill="#95d6a4"/><path d="m149.512 79c0-20.102-5.192-37.793-18.406-50.926-13.108-13.025-31.166-21.074-51.105-21.074-40.041 0-72.5 32.459-72.5 72.5 0 13.764 3.836 26.632 10.496 37.594 12.716 20.927 37.323 31.47 63.6 31.47 40.04 0 67.915-29.523 67.915-69.564z" fill="#df646e"/><path d="m152.501 79.5c0 40.04-32.46 72.5-72.5 72.5-26.51 0-49.7-14.23-62.34-35.48 12.82 11.49 29.76 18.48 48.34 18.48 40.04 0 72.5-32.46 72.5-72.5 0-13.53-3.71-26.19-10.16-37.02 14.83 13.27 24.16 32.56 24.16 54.02z" fill="#dc4955"/><path d="m489.341 268c0-22.694-7.267-42.952-23.592-56.246-12.478-10.162-28.402-16.254-45.749-16.254-40.041 0-72.5 32.459-72.5 72.5 0 15.602 4.928 30.053 13.313 41.881 13.134 18.527 38.748 24.438 63.187 24.438 40.042 0 65.341-26.278 65.341-66.319z" fill="#df646e"/><path d="m473.35 317.079c.555-.795.706-.294 5.867-7.276 8.357-11.816 13.284-26.23 13.284-41.803 0-25.13-12.79-47.28-32.22-60.28 7.72 11.52 12.22 25.37 12.22 40.28 0 16.57-5.568 31.835-14.923 44.044-1.187 1.549-3.178 2.255-5.078 1.811-6.644-1.552-13.511-2.355-20.499-2.355-22.03 0-42.216 8.002-57.822 21.248-1.499 1.272-3.608 1.544-5.383.698-3.158-1.507-6.191-3.233-9.075-5.166 23.916 35.876 78.149 46.069 113.629 8.799z" fill="#dc4955"/><path d="m501.512 380.5c0-20.102-5.192-37.793-18.406-50.926-13.107-13.026-31.166-21.074-51.104-21.074-40.041 0-72.5 32.459-72.5 72.5 0 13.764 3.836 26.632 10.496 37.594 12.716 20.927 37.323 31.47 63.6 31.47 40.039 0 67.914-29.523 67.914-69.564z" fill="#faf8f8"/><path d="m504.501 381c0 40.04-32.46 72.5-72.5 72.5-26.51 0-49.7-14.23-62.34-35.48 12.82 11.49 29.76 18.48 48.34 18.48 40.04 0 72.5-32.46 72.5-72.5 0-13.53-3.71-26.19-10.16-37.02 14.83 13.27 24.16 32.56 24.16 54.02z" fill="#f0e9e6"/><path d="m501.512 79c0-20.102-5.192-37.793-18.406-50.926-13.108-13.025-31.166-21.074-51.105-21.074-40.041 0-72.5 32.459-72.5 72.5 0 13.764 3.836 26.632 10.496 37.594 12.716 20.927 37.323 31.47 63.6 31.47 40.04 0 67.915-29.523 67.915-69.564z" fill="#faf8f8"/><path d="m504.501 79.5c0 40.04-32.46 72.5-72.5 72.5-26.51 0-49.7-14.23-62.34-35.48 12.82 11.49 29.76 18.48 48.34 18.48 40.04 0 72.5-32.46 72.5-72.5 0-13.53-3.71-26.19-10.16-37.02 14.83 13.27 24.16 32.56 24.16 54.02z" fill="#f0e9e6"/><path d="m343.937 429.912-41.707-24.71-91.628-.219-15.884 4.811-13.139 53.039 35.987 41.667h77.672z" fill="#faf8f8"/><path d="m225.657 361.976-12.754 23.117-2.456 21.225c-.94 8.061 1.261 16.232 6.353 22.552 6.46 8.019 18.309 16.414 39.601 16.414 21.29 0 33.138-8.393 39.599-16.411 2.637-3.272 4.498-7.041 5.55-11.034.98-3.721-3.936-8.966-4.39-12.856l.098-44.578z" fill="#f2d1a5"/><path d="m212.898 385.093 2.676-23.117 81.686-1.569 4.968 44.796 3.574 7.234-4.258 5.401-7.236-2.175c-4.415-.978-3.965-7.1-4.461-10.491l-.803-7.241c-.338-3.049-3.494-4.899-6.34-3.755-8.843 3.554-17.639 5.351-26.302 5.351-14.266 0-28.893-4.852-43.504-14.434z" fill="#f2bb88"/><path d="m296.56 499.14c11.763-22.433 17.164-51.147 19.615-70.898.415-3.345-1.649-6.497-4.877-7.468l-9.755-2.935c.984-3.722 1.261-7.636.807-11.528l-.123-1.107 15.827 4.76 47.249 14.212c19.51 5.868 10.755 65.035 10.755 65.035l-69.285 15.289h-13.02z" fill="#f0e9e6"/><path d="m109.986 466.418 8.727 29.86 87.318 8.222h13.02l-2.807-5.36c-15.634-29.815-20.033-70.743-21.202-86.954-.061-.808-.161-1.607-.323-2.392l-47.318 14.335c-19.458 5.898-33.931 22.255-37.415 42.289z" fill="#f0e9e6"/><path d="m100.672 504.5c-4.787 0-8.411-4.326-7.571-9.039l5.511-30.935c4.26-24.532 21.725-44.227 45.565-51.402l27.501-8.269c5.654-1.7 11.437 2.269 11.86 8.159 1.413 19.652 6.229 60.475 22.492 91.486z" fill="#f5de46"/><path d="m348.846 261.42h5.149c12.317 0 22.302 10.019 22.302 22.379 0 17.048-13.772 30.867-30.761 30.867h-177.646c-16.989 0-30.761-13.82-30.761-30.867 0-12.359 9.985-22.379 22.302-22.379h5.149z" fill="#f2bb88"/><path d="m348.846 261.42c0 39.152-.756 52.011-16.683 74.142-21.968 30.524-49.333 51.256-75.451 51.256s-53.483-20.732-75.451-51.256c-13.304-18.486-16.022-30.504-16.557-56.781-.105-5.18 3.522-13.18 3.522-19.627l-12.951-87.571 202.255 27.096z" fill="#f2d1a5"/><path d="m357.532 198.68-8.605 62.191c-3.714-9.467-10.651-18.303-19.449-24.055-28.985-18.941-59.469 6.814-106.142-34.645-.008 0-.015-.008-.015-.015-.684-.608-1.369-1.23-2.061-1.861-2.038-1.876-5.322-1.069-6.245 1.546-.823 2.338-1.684 4.614-2.607 6.821-4.806 11.474-11.182 20.979-21.779 27.231-12.712 7.506-23.44 35.906-25.924 42.889-.1-5.183-.123-10.92-.123-17.365l-8.713-84.086 4.745-5.029z" fill="#f2bb88"/><path d="m212.602 177.343c-1.388 4.371-1.616 14.287-3.272 18.244-4.802 11.472-11.184 20.982-21.778 27.233-14.53 8.573-22.972 38.6-22.972 38.6-18.992 0-27.451-28.373-27.451-47.844 0-45.41 27.685-68.68 56.417-68.461 3.511.027 7.115.476 10.773 1.556 1.998.59 4.344 3.099 6.368 4.099 1.692-1.793 3.119-5.226 4.938-6.836 16.609-14.695 38.321-21.769 61.381-21.641 9.538.053 17.753 2.821 27.487 5.308 69.941 17.87 82.451 116.338 43.999 130.204 0 0-.72-4.337-1.657-7.249-3.375-10.491-10.783-20.504-20.437-26.813-28.985-18.944-59.465 6.815-106.14-34.644-2.104-1.87-5.483-9.602-7.656-11.756z" fill="#7a6d79"/><path d="m348.849 261.417s-.061-.915-.177-2.084c-.277-2.915-.9-5.868-1.846-8.775 20.687-30.738 3.83-109.118-56.162-124.444-7.306-1.869-14.635-3.053-21.871-3.553 12.097-.861 24.701.346 37.252 3.553 69.943 17.872 81.256 121.438 42.804 135.303z" fill="#685e68"/><g><path d="m152.575 331.255c0-17.652-2.383-35.085-12.868-47.659-13.298-15.947-33.317-26.096-55.706-26.096-40.041 0-72.5 32.459-72.5 72.5 0 10.6 2.275 20.668 6.363 29.744 3.646 8.094 10.807 14.984 17.01 21.171 13.115 13.082 30.438 18.383 50.426 18.383 40.039 0 67.275-28.002 67.275-68.043z" fill="#b3e59f"/><path d="m156.501 330c0 40.04-32.46 72.5-72.5 72.5-29.84 0-55.48-18.03-66.59-43.8 13.29 15.2 32.82 24.8 54.59 24.8 40.04 0 72.5-32.46 72.5-72.5 0-10.2-2.11-19.9-5.91-28.7 11.15 12.75 17.91 29.43 17.91 47.7z" fill="#95d6a4"/><g><g><path d="m84.504 372.292v-.504" fill="#faf8f8"/></g></g></g><g><path d="m408.905 501.353c4.783-.011 8.395-4.343 7.545-9.05l-8.893-27.841c-4.314-24.504-18.453-39.582-42.292-46.696l-23.166-5.932c-5.654-1.686-7.042-4.299-7.452 1.587-.104 1.499-5.786 2.729-5.933 4.461-1.779 20.959-6.945 57.96-21.89 86.619l97.665-.225z" fill="#f5de46"/><path d="m328.709 417.881 25.139 7.496c23.839 7.115 41.336 26.755 45.65 51.259l4.99 27.638 7.616-.018c4.788-.011 8.397-4.346 7.549-9.047l-5.581-30.903c-4.314-24.504-21.811-44.145-45.65-51.259l-27.5-8.198c-5.652-1.685-11.422 2.293-11.831 8.181-.105 1.5-.232 3.122-.382 4.851z" fill="#f3d332"/></g></g><g><path d="m402.669 250.721c4.143 0 7.5-3.357 7.5-7.5 0-.478.033-.955.098-1.421.697-4.993 4.988-8.7 10.028-8.7.068 0 .139.001.207.002 5.276.106 9.623 4.311 9.896 9.571.146 2.812-.837 5.479-2.768 7.514-1.933 2.035-4.539 3.156-7.34 3.156-4.143 0-7.5 3.357-7.5 7.5v18.427c0 4.143 3.357 7.5 7.5 7.5s7.5-3.357 7.5-7.5v-12.082c4.046-1.271 7.758-3.556 10.718-6.673 4.791-5.047 7.23-11.659 6.87-18.619-.68-13.077-11.474-23.526-24.573-23.79-12.752-.278-23.639 9.038-25.394 21.619-.161 1.149-.242 2.325-.242 3.496 0 4.142 3.357 7.5 7.5 7.5z"/><path d="m205.501 125c4.143 0 7.5-3.357 7.5-7.5v-54c0-4.143-3.357-7.5-7.5-7.5s-7.5 3.357-7.5 7.5v54c0 4.143 3.357 7.5 7.5 7.5z"/><path d="m432.001 160c44.112 0 80-35.888 80-80s-35.888-80-80-80-80 35.888-80 80 35.888 80 80 80zm0-145c35.841 0 65 29.159 65 65s-29.159 65-65 65-65-29.159-65-65 29.159-65 65-65z"/><path d="m105.378 53.896c-.68-13.077-11.474-23.526-24.573-23.79-.172-.004-.343-.006-.514-.006-12.5 0-23.148 9.214-24.88 21.625-.161 1.149-.242 2.325-.242 3.496 0 4.143 3.357 7.5 7.5 7.5s7.5-3.357 7.5-7.5c0-.478.033-.955.098-1.421.697-4.993 4.988-8.7 10.028-8.7.068 0 .139.001.207.002 5.276.106 9.623 4.311 9.896 9.571.146 2.812-.837 5.479-2.768 7.514-1.933 2.035-4.539 3.156-7.34 3.156-4.143 0-7.5 3.357-7.5 7.5v18.427c0 4.143 3.357 7.5 7.5 7.5s7.5-3.357 7.5-7.5v-12.082c4.046-1.271 7.758-3.556 10.718-6.673 4.791-5.047 7.23-11.66 6.87-18.619z"/><path d="m80.505 114.288c-4.143 0-7.5 3.357-7.5 7.5v.504c0 4.143 3.357 7.5 7.5 7.5s7.5-3.357 7.5-7.5v-.504c0-4.142-3.358-7.5-7.5-7.5z"/><path d="m84.505 364.288c-4.143 0-7.5 3.357-7.5 7.5v.504c0 4.143 3.357 7.5 7.5 7.5s7.5-3.357 7.5-7.5v-.504c0-4.142-3.358-7.5-7.5-7.5z"/><path d="m84.501 349c4.143 0 7.5-3.357 7.5-7.5v-54c0-4.143-3.357-7.5-7.5-7.5s-7.5 3.357-7.5 7.5v54c0 4.143 3.357 7.5 7.5 7.5z"/><path d="m504.099 370.233c-4.139.183-7.345 3.686-7.163 7.823.044.979.065 1.968.065 2.943 0 35.841-29.159 65-65 65-5.561 0-11.055-.707-16.378-2.089-8.543-17.955-24.126-31.782-43.669-38.009-3.279-7.883-4.952-16.243-4.952-24.903 0-35.841 29.159-65 65-65 22.938 0 44.423 12.298 56.069 32.094 2.1 3.57 6.695 4.763 10.267 2.661 3.57-2.1 4.762-6.696 2.661-10.267-5.008-8.512-11.498-15.893-19.023-21.899 11.674-14.243 18.026-31.916 18.026-50.589 0-44.112-35.888-80-80-80-15.668 0-30.756 4.548-43.657 12.97-3.114-21.212-12.629-44.121-30.835-61.399-3.005-2.852-7.751-2.728-10.604.277-2.851 3.005-2.727 7.752.277 10.604 23.293 22.105 30.713 57.286 26.005 80.613-1.387 6.867-3.718 12.48-6.813 16.565-4.218-15.6-15.324-24.624-24.13-30.38-13.406-8.762-27.17-9.223-40.48-9.668-20.22-.677-41.117-1.392-69.082-28.241l-2.849-27.81c20.776-20.075 52.664-26.976 86.084-18.436 1.426.364 2.844.772 4.215 1.214 3.947 1.271 8.168-.896 9.438-4.84 1.27-3.942-.897-8.168-4.84-9.438-1.662-.535-3.377-1.03-5.099-1.47-7.794-1.992-15.526-3.229-23.111-3.76.32-2.918.482-5.859.482-8.803 0-44.112-35.888-80-80-80-19.551 0-38.198 7.111-52.691 19.81-12.846-27.05-40.425-45.806-72.311-45.806-44.112 0-80 35.888-80 80 0 19.226 6.921 37.811 19.488 52.331 2.711 3.132 7.447 3.474 10.579.763s3.474-7.447.763-10.579c-10.208-11.795-15.83-26.894-15.83-42.515 0-35.841 29.159-65 65-65s65 29.159 65 65-29.159 65-65 65c-8.083 0-15.964-1.463-23.426-4.347-3.861-1.493-8.206.428-9.699 4.291-1.494 3.863.428 8.206 4.291 9.699 9.193 3.555 18.895 5.357 28.834 5.357 20.15 0 38.57-7.505 52.651-19.845 3.417 7.226 7.909 13.917 13.334 19.843-8.469 10.495-16.759 27.398-16.759 53.356 0 14.785 4.494 33.438 14.107 44.883-3.772 2.354-6.981 5.53-9.382 9.276-14.111-11.35-31.48-17.513-49.951-17.513-44.112 0-80 35.888-80 80s35.888 80 80 80 80-35.888 80-80c0-2.738-.145-5.468-.421-8.18.204.021.41.03.615.048 2.566 5.769 5.998 11.535 10.612 17.946 9.977 13.863 20.735 25.349 31.78 34.144l-2.919 25.065-15.652 4.725c-1.137-1.638-2.56-3.088-4.255-4.256-4.207-2.896-9.424-3.71-14.312-2.237l-27.526 8.305c-11.513 3.339-24.229 11.158-33.622 21.514-8.924 10.111-14.87 22.562-17.191 35.973l-7.127 40.143c-.724 4.079 1.995 7.972 6.073 8.696.444.078.885.116 1.32.116 3.567 0 6.73-2.555 7.376-6.189l7.132-40.175c1.85-10.685 6.558-20.568 13.619-28.588 6.432-6.795 15.618-13.927 26.757-17.13l27.522-8.304c.651-.197 1.161.018 1.471.231.315.217.701.621.751 1.317.665 9.282 2.132 19.56 4.361 30.546.824 4.06 4.785 6.678 8.842 5.859 4.06-.824 6.683-4.782 5.859-8.842-1.608-7.923-2.79-15.417-3.535-22.373l11.556-3.489c.937 6.734 3.623 13.134 7.84 18.385 7.064 8.797 20.689 19.284 45.478 19.284 24.791 0 38.415-10.489 45.479-19.288 4.258-5.303 6.958-11.777 7.87-18.582l11.591 3.528c-.911 10.019-2.581 23.263-5.638 37.37l-7.12 25.71c-2.512 7.222-5.344 13.867-8.421 19.754-1.918 3.671-.497 8.202 3.174 10.121 1.109.579 2.297.854 3.468.854 2.703-.001 5.314-1.467 6.653-4.028 3.45-6.602 6.604-14.009 9.377-22.015.052-.149.099-.3.141-.452l7.24-26.145c.038-.135.071-.271.101-.407 3.947-18.141 5.705-34.914 6.484-45.791.05-.696.436-1.101.751-1.317.311-.214.817-.429 1.472-.23l27.519 8.302c21.131 6.382 36.604 23.9 40.385 45.751l7.127 40.143c.725 4.078 4.623 6.79 8.696 6.073 4.078-.725 6.797-4.617 6.073-8.696-1.793-9.87-5.892-33.638-7.671-42.933 3.582.486 7.202.744 10.846.744 44.112 0 80-35.888 80-80 0-1.194-.026-2.407-.079-3.604-.184-4.137-3.696-7.318-7.824-7.163zm-19.098-102.233c0 15.704-5.538 30.53-15.668 42.303-11.353-6-24.146-9.303-37.332-9.303-19.535 0-37.449 7.048-51.355 18.722-3.257-2.478-6.26-5.248-8.991-8.291 7.336-6.999 11.923-16.87 11.923-27.801 0-11.957-7.04-22.291-17.18-27.069 4.423-5.892 7.669-13.496 9.492-22.529.942-4.669 1.486-9.788 1.601-15.192 11.812-10.228 26.804-15.84 42.509-15.84 35.842 0 65.001 29.159 65.001 65zm-128.912.937c7.065 1.129 12.489 7.278 12.489 14.694 0 9.919-6.182 18.411-14.875 21.806 1.886-9.88 2.307-21.224 2.386-36.5zm-196.088-188.937c0-6.428-.783-12.674-2.222-18.667 12.265-12.965 29.279-20.333 47.222-20.333 35.841 0 65 29.159 65 65 0 2.914-.217 5.819-.6 8.693-23.59 1.38-44.984 10.031-61.124 25.212-3.409-1.213-9.469-2.553-15.494-2.566-13.152 0-25.68 4.285-36.049 12.191-5.639-6.249-10.01-13.523-12.867-21.414 10.12-13.401 16.134-30.068 16.134-48.116zm1.267 85.414c8.586-8.521 19.912-13.163 31.863-13.073 3.5.026 6.759.569 9.874 1.629l2.873 28.038c-5.06 15.55-10.942 27.318-22.499 34.137-14.992 8.846-23.387 20.124-25.881 35.016-8.268-6.613-13.27-24.605-13.27-37.808 0-20.298 5.892-36.875 17.04-47.939zm-17.04 118.216c0-7.415 5.424-13.564 12.489-14.693.079 15.276.5 26.62 2.386 36.5-8.694-3.395-14.875-11.887-14.875-21.807zm4.773 46.37c0 35.841-29.159 65-65 65s-65-29.159-65-65 29.159-65 65-65c17.104 0 33.051 6.493 45.234 18.332-.001.1-.008.198-.008.298 0 13.846 7.349 26.001 18.339 32.755.948 4.454 1.435 9.02 1.435 13.615zm37.981 1.053c-14.678-20.395-15.283-31.309-15.283-69.818 0-14.761 5.592-24.081 19.302-32.17 13.272-7.832 20.636-19.97 25.787-32.989 29.164 25.05 52.992 25.847 72.475 26.498 12.784.428 22.881.766 32.775 7.233 13.544 8.852 19.068 17.957 19.068 31.428 0 38.511-.605 49.425-15.282 69.818-22.035 30.616-47.338 48.176-69.421 48.176-22.085 0-47.387-17.56-69.421-48.176zm103.204 92.803c-7.286 9.076-18.652 13.679-33.782 13.679-15.129 0-26.494-4.602-33.782-13.677-3.744-4.662-5.477-10.892-4.755-17.093l2.703-23.208c12.053 6.972 24.201 10.671 35.834 10.671 11.635 0 23.787-3.7 35.842-10.676l2.697 23.217c.719 6.198-1.014 12.425-4.757 17.087zm38.86-24.364c-1.643 1.131-3.035 2.526-4.155 4.101l-15.774-4.8-2.886-24.844c11.041-8.794 21.794-20.276 31.767-34.134 4.614-6.411 8.047-12.177 10.613-17.946 3.569-.309 6.998-1.108 10.222-2.334 3.377 4.01 7.119 7.665 11.204 10.932-11.265 13.787-18.036 31.383-18.036 50.534 0 6.689.807 13.238 2.408 19.589l-11.05-3.333c-4.886-1.477-10.105-.662-14.313 2.235z"/><path d="m203.494 473.837c-1.195-3.966-5.379-6.213-9.345-5.019s-6.213 5.378-5.019 9.345c5.111 16.971 9.695 28.608 9.888 29.095 1.166 2.947 3.989 4.744 6.977 4.744.918 0 1.851-.17 2.756-.527 3.853-1.523 5.74-5.881 4.217-9.732-.045-.115-4.543-11.533-9.474-27.906z"/><path d="m276.792 295.245 19.918 11.5c1.181.682 2.471 1.006 3.743 1.006 2.592 0 5.113-1.345 6.502-3.751 2.071-3.587.842-8.174-2.745-10.245l-8.668-5.005 8.668-5.005c3.587-2.071 4.816-6.658 2.745-10.245-2.071-3.588-6.66-4.814-10.245-2.745l-19.918 11.5c-2.32 1.34-3.75 3.815-3.75 6.495s1.43 5.155 3.75 6.495z"/><path d="m235.21 282.255-19.918-11.5c-3.587-2.07-8.176-.844-10.245 2.745-2.071 3.587-.842 8.174 2.745 10.245l8.668 5.005-8.668 5.005c-3.587 2.071-4.816 6.658-2.745 10.245 1.39 2.406 3.91 3.751 6.502 3.751 1.272 0 2.563-.324 3.743-1.006l19.918-11.5c2.32-1.34 3.75-3.815 3.75-6.495s-1.43-5.155-3.75-6.495z"/><path d="m271.501 347.5c0-4.143-3.357-7.5-7.5-7.5h-16c-4.143 0-7.5 3.357-7.5 7.5s3.357 7.5 7.5 7.5h16c4.143 0 7.5-3.357 7.5-7.5z"/><path d="m244.342 320.774c3.486 2.324 7.573 3.485 11.659 3.485s8.173-1.161 11.659-3.485c3.447-2.298 4.379-6.954 2.082-10.4-2.298-3.448-6.954-4.376-10.4-2.082-1.904 1.27-4.777 1.27-6.682 0-3.445-2.295-8.103-1.366-10.4 2.082-2.297 3.446-1.365 8.103 2.082 10.4z"/><circle cx="402.501" cy="79.5" r="7.5"/><circle cx="462.501" cy="79.5" r="7.5"/><circle cx="432.501" cy="79.5" r="7.5"/><circle cx="401.501" cy="380.5" r="7.5"/><circle cx="461.501" cy="380.5" r="7.5"/><circle cx="431.501" cy="380.5" r="7.5"/></g></g></svg>