<?xml version="1.0" encoding="iso-8859-1"?>
<!-- Generator: Adobe Illustrator 19.0.0, SVG Export Plug-In . SVG Version: 6.00 Build 0)  -->
<svg version="1.1" id="Capa_1" xmlns="http://www.w3.org/2000/svg" xmlns:xlink="http://www.w3.org/1999/xlink" x="0px" y="0px"
	 viewBox="0 0 511.999 511.999" style="enable-background:new 0 0 511.999 511.999;" xml:space="preserve">
<rect x="330.866" y="152.369" transform="matrix(-0.7071 -0.7071 0.7071 -0.7071 542.0626 577.4397)" style="fill:#404B58;" width="119.514" height="48.172"/>
<path style="fill:#ED718B;" d="M449.911,201.687l-84.51-84.51l45.63-45.63c11.945-11.945,31.31-11.945,43.255,0l41.255,41.255
	c11.945,11.945,11.945,31.31,0,43.255L449.911,201.687z"/>
<rect x="149.23" y="226.671" transform="matrix(-0.7071 0.7071 -0.7071 -0.7071 681.6421 290.5111)" style="fill:#FDA75F;" width="262.849" height="119.514"/>
<rect x="260.743" y="155.001" transform="matrix(-0.7071 -0.7071 0.7071 -0.7071 276.5852 687.4166)" style="opacity:0.05;enable-background:new    ;" width="39.837" height="262.849"/>
<path style="fill:#FBE096;" d="M229.471,386.44l-17.589,4.453c-4.544,1.15-8.667-2.973-7.517-7.517l4.453-17.589
	c1.15-4.544-2.973-8.667-7.517-7.517l-17.59,4.453c-4.544,1.15-8.667-2.973-7.517-7.517l4.453-17.589
	c1.15-4.544-2.973-8.667-7.517-7.517l-27.654,7.001c-9.647,9.647-16.944,21.387-21.323,34.309l-24.978,73.696
	c-4.784,14.116,8.691,27.591,22.807,22.807l73.695-24.978c12.922-4.379,24.661-11.676,34.309-21.323l7.001-27.654
	C238.139,389.413,234.015,385.29,229.471,386.44z"/>
<path style="fill:#404B58;" d="M113.985,401.412l-14.81,43.695c-4.784,14.116,8.691,27.591,22.807,22.807l43.694-14.81
	L113.985,401.412z"/>
<path style="opacity:0.1;enable-background:new    ;" d="M495.541,112.802L479.83,97.09c11.944,11.945,11.944,31.31,0,43.254
	l-45.63,45.63l-34.064,34.064l0,0L214.275,405.9c-9.647,9.647-21.387,16.944-34.309,21.323l-73.696,24.978
	c-2.715,0.92-5.405,1.159-7.948,0.854c1.283,10.674,12.261,18.722,23.66,14.859l73.696-24.978
	c12.922-4.379,24.661-11.676,34.309-21.323l185.862-185.862l0,0l34.064-34.064l45.63-45.63
	C507.486,144.112,507.486,124.747,495.541,112.802z"/>
<path d="M500.845,107.499L459.59,66.244c-7.193-7.193-16.758-11.155-26.931-11.155s-19.737,3.961-26.931,11.155L360.1,111.871
	c-0.001,0.001-0.002,0.002-0.003,0.002c0,0-0.001,0.002-0.002,0.003l-74.942,74.942c0.926-13.733,5.281-30.905,12.934-50.695
	c10.792-27.91,4.936-53.695-16.488-72.608c-20.148-17.785-51.86-27.692-89.295-27.899c-0.384-0.002-0.766-0.003-1.15-0.003
	c-38.725,0-80.074,10.779-116.568,30.406C43.413,82.785,20.731,102.99,8.994,124.451c-10.372,18.966-11.847,38.649-4.043,54.003
	c5.454,10.734,14.95,18.403,26.736,21.593c12.166,3.292,25.716,1.621,39.188-4.834c37.448-17.947,81.07-21.56,87.552-11.26
	c1.041,1.654,8.213,17.732-59.588,72.177c-7.773,6.243-15.101,12.448-21.775,18.441c-3.082,2.768-3.337,7.509-0.57,10.591
	c1.481,1.65,3.528,2.489,5.584,2.489c1.784,0,3.575-0.633,5.008-1.919c6.471-5.81,13.586-11.836,21.147-17.907
	c53.954-43.327,74.526-73.375,62.891-91.863c-14.333-22.771-71.192-11.308-106.731,5.722c-19.4,9.296-38.345,5.174-46.068-10.026
	c-5.524-10.872-4.128-25.456,3.831-40.01c7.21-13.184,23.393-32.979,59.536-52.417c34.686-18.656,73.958-28.832,110.529-28.614
	c33.316,0.184,62.275,8.984,79.451,24.145c16.612,14.663,20.908,34.011,12.425,55.951c-11.276,29.157-15.824,52.915-13.573,70.736
	l-130.35,130.351c-10.404,10.403-18.401,23.268-23.125,37.205l-10.607,31.299c-38.126-0.416-63.866-9.539-70.988-25.319
	c-6.857-15.192,2.491-37.64,27.035-64.917c2.77-3.079,2.52-7.821-0.559-10.592c-3.077-2.77-7.821-2.52-10.592,0.559
	c-29.241,32.497-39.186,59.792-29.557,81.123c9.541,21.138,36.973,32.823,79.609,34.056L92.072,442.7
	c-3.137,9.253-0.793,19.293,6.115,26.202c4.882,4.882,11.328,7.484,17.954,7.484c2.751,0,5.533-0.449,8.247-1.369l73.695-24.978
	c13.936-4.722,26.8-12.719,37.206-23.123l72.93-72.93c17.413-0.457,37.383,5.697,62.538,19.251c1.132,0.61,2.35,0.899,3.551,0.899
	c2.67,0,5.255-1.429,6.609-3.944c1.965-3.646,0.602-8.195-3.045-10.16c-21.099-11.368-39.154-17.958-55.504-20.195l98.777-98.777
	c0.001-0.001,0.003-0.002,0.004-0.004c0.001-0.001,0.002-0.003,0.004-0.004l47.749-47.749c2.929-2.929,2.929-7.678,0-10.606
	c-2.93-2.929-7.678-2.929-10.607,0l-8.386,8.386l-73.902-73.902l40.327-40.327c4.359-4.36,10.156-6.761,16.323-6.761
	s11.965,2.401,16.324,6.761l41.255,41.255c4.36,4.36,6.762,10.157,6.762,16.324c0,6.165-2.401,11.963-6.762,16.324l-7.719,7.719
	c-2.929,2.929-2.929,7.678,0.001,10.607c2.927,2.928,7.676,2.929,10.607-0.001l7.718-7.719c7.194-7.193,11.156-16.758,11.156-26.93
	C512,124.257,508.039,114.692,500.845,107.499z M119.574,460.81c-3.868,1.309-7.895,0.369-10.779-2.516
	c-2.885-2.885-3.826-6.915-2.516-10.779l10.935-32.265l34.626,34.625L119.574,460.81z M223.237,417.714
	c-8.519,8.099-18.838,14.347-29.966,18.118l-25.586,8.672l-45.1-45.099l8.671-25.586c3.772-11.13,10.021-21.448,18.121-29.966
	l23.46-5.94l-3.912,15.454c-1.195,4.721,0.146,9.595,3.59,13.039c3.443,3.444,8.319,4.788,13.039,3.59l15.454-3.912l-3.912,15.454
	c-1.195,4.721,0.146,9.595,3.59,13.039c3.443,3.443,8.32,4.787,13.039,3.59l15.453-3.913L223.237,417.714z M243.942,397.05
	l0.317-1.252c1.195-4.721-0.146-9.595-3.59-13.039c-3.443-3.443-8.317-4.785-13.039-3.59l-15.453,3.913l3.912-15.454
	c1.195-4.721-0.146-9.595-3.59-13.039c-3.442-3.443-8.313-4.786-13.039-3.59l-15.454,3.912l3.912-15.454
	c1.195-4.721-0.146-9.595-3.59-13.039c-3.442-3.442-8.318-4.785-13.039-3.59l-1.25,0.316l161.298-161.298l73.902,73.902
	L243.942,397.05z M439.304,201.686l-23.456,23.456l-73.902-73.902l23.456-23.456L439.304,201.686z"/>
<g>
</g>
<g>
</g>
<g>
</g>
<g>
</g>
<g>
</g>
<g>
</g>
<g>
</g>
<g>
</g>
<g>
</g>
<g>
</g>
<g>
</g>
<g>
</g>
<g>
</g>
<g>
</g>
<g>
</g>
</svg>
