<svg id="Capa_1" enable-background="new 0 0 512 512" height="512" viewBox="0 0 512 512" width="512" xmlns="http://www.w3.org/2000/svg"><g><circle cx="69.957" cy="187.337" fill="#a2ddfd" r="42.108"/><path d="m250.043 30.919c-6.512.941-13.104-.679-18.33-4.676-15.367-11.751-34.565-18.743-55.405-18.743-20.845 0-40.047 6.995-55.415 18.752-5.22 3.993-11.804 5.61-18.308 4.67-44.458-6.423-85.803 28.087-85.803 74.493 0 51.741 50.495 86.697 97.599 71.852 6.236-1.965 12.974-1.044 18.731 2.057 12.861 6.925 27.566 10.865 43.197 10.865s30.336-3.939 43.197-10.865c5.758-3.101 12.496-4.021 18.734-2.056 47.049 14.818 97.595-20.032 97.595-71.853-.001-46.357-41.293-80.924-85.792-74.496z" fill="#cde9fa"/><path d="m334.389 120.294c-7.306-.773-14.712-1.172-22.192-1.172-38.512 0-75.714 10.443-107.587 30.2-17.506 10.852-32.799 24.108-45.438 39.257 5.55 1.056 11.278 1.61 17.136 1.61 15.631 0 30.336-3.939 43.197-10.865 5.758-3.101 12.496-4.021 18.734-2.056 42.384 13.348 87.598-13.613 96.15-56.974z" fill="#a2ddfd"/><ellipse cx="97.595" cy="284.848" fill="#a2ddfd" rx="25.638" ry="25.638" transform="matrix(.707 -.707 .707 .707 -172.833 152.44)"/><path d="m434.711 504.5c0-67.662-54.851-122.514-122.514-122.514-61.647 0-112.659 45.531-121.242 104.8-1.354 9.351 5.965 17.714 15.413 17.714z" fill="#b0ade2"/><path d="m312.198 467.619c37.364 0 73.111-10.025 103.52-28.659-21.725-34.243-59.966-56.974-103.521-56.974s-81.796 22.731-103.521 56.973c30.41 18.635 66.158 28.66 103.522 28.66z" fill="#a09cdc"/><g fill="#ffd3bd"><ellipse cx="312.198" cy="296.44" rx="156.676" ry="141.179"/><ellipse cx="312.198" cy="296.44" rx="156.676" ry="141.179"/><ellipse cx="312.198" cy="296.44" rx="156.676" ry="141.179"/></g><path d="m456.207 352.124c-9.427-5.732-20.337-8.88-31.561-8.88-15.112 0-29.599 5.596-40.794 15.758-19.708 17.893-24.899 45.882-14.887 69.058 39.174-13.728 70.699-41.244 87.242-75.936z" fill="#ffbe9d"/><path d="m479.646 504.5c9.144 0 16.414-7.858 15.493-16.955-3.952-39.018-19.735-73.374-47.756-104.237-11.394-12.552-30.811-13.491-43.366-2.094-12.553 11.397-13.49 30.813-2.094 43.366 21.762 23.969 32.181 49.114 32.788 79.92z" fill="#ffd3bd"/><path d="m468.423 410.669c-13.521 17.175-38.86 31.078-50.173 35.544 10.72 17.664 16.033 36.567 16.461 58.287h44.934c9.144 0 16.414-7.858 15.493-16.955-2.821-27.861-11.68-53.344-26.715-76.876z" fill="#a09cdc"/><path d="m454.717 252.129c6.303-.075 10.435-6.556 7.794-12.279-24.566-53.225-82.686-90.728-150.313-90.728-68.039 0-126.457 37.961-150.76 91.703-2.74 6.06 2.807 12.526 9.202 10.701 24.759-7.065 54.373-19.936 74.496-32.342 3.479-2.145 7.891.603 7.486 4.67-.164 1.649-.302 3.421-.399 5.284-.789 15.086 12.021 27.324 27.058 25.878 25.073-2.412 62.001-9.158 85.334-27.738 1.893-1.507 4.522-1.672 6.54-.337 23.044 15.251 52.535 25.555 83.562 25.188z" fill="#d99a84"/><ellipse cx="120.313" cy="98.597" fill="#88d37f" rx="30.942" ry="30.942" transform="matrix(.707 -.707 .707 .707 -34.48 113.953)"/><path d="m244.118 69.682h-33.38c-6.752 0-12.225 5.473-12.225 12.225v33.38c0 6.752 5.473 12.225 12.225 12.225h33.38c6.752 0 12.225-5.473 12.225-12.225v-33.38c0-6.752-5.474-12.225-12.225-12.225z" fill="#b0ade2"/><g><g fill="#eda1ab"><ellipse cx="232.641" cy="330.828" rx="29.355" ry="23.377"/><ellipse cx="391.754" cy="330.828" rx="29.355" ry="23.377"/></g></g><path d="m97.595 251.71c-18.272 0-33.138 14.866-33.138 33.138s14.866 33.138 33.138 33.138 33.138-14.866 33.138-33.138-14.866-33.138-33.138-33.138zm0 51.276c-10.001 0-18.138-8.137-18.138-18.138s8.137-18.138 18.138-18.138 18.138 8.137 18.138 18.138c0 10.002-8.137 18.138-18.138 18.138zm405.005 183.803c-4.129-40.764-20.375-76.262-49.664-108.522-.679-.748-1.389-1.455-2.115-2.141 16.738-23.813 25.553-51.207 25.553-79.685 0-15.361-2.584-30.476-7.67-44.996 2.572-4.52 2.817-9.972.617-14.738-23.751-51.46-75.301-86.672-134.907-93.748 5.863-11.491 8.922-24.262 8.922-37.544 0-24.007-10.403-46.784-28.543-62.491-18.201-15.759-42.19-22.841-65.822-19.427-4.61.664-9.123-.474-12.701-3.211-17.354-13.271-38.088-20.286-59.962-20.286-21.879 0-42.617 7.018-59.972 20.294-3.571 2.732-8.075 3.868-12.678 3.205-11.577-1.673-23.134-.887-34.351 2.337-3.981 1.144-6.281 5.298-5.137 9.28 1.143 3.98 5.298 6.281 9.279 5.137 9.162-2.633 18.604-3.275 28.063-1.908 8.632 1.249 17.134-.932 23.938-6.136 14.716-11.258 32.303-17.209 50.858-17.209 18.551 0 36.134 5.948 50.849 17.201 6.81 5.208 15.32 7.39 23.958 6.141 19.323-2.792 38.95 3.012 53.858 15.92 14.847 12.856 23.362 31.501 23.362 51.152 0 13.092-3.623 25.557-10.491 36.303-43.076-1.283-84.01 12.038-116.234 37.049-22.223 7.049-45.672 4.331-64.942-6.046-7.81-4.206-16.525-5.132-24.541-2.606-42.794 13.485-87.844-18.516-87.844-64.699 0-18.774 7.487-36.206 21.083-49.084 3.007-2.849 3.136-7.595.287-10.603-2.849-3.007-7.595-3.137-10.603-.287-16.617 15.739-25.768 37.039-25.768 59.974 0 20.175 7.07 39.003 19.826 53.778-5.685 8.234-8.759 18.006-8.759 28.144 0 27.354 22.254 49.607 49.607 49.607 28.543 0 51.522-24.249 49.467-53.101 3.338-.384 6.847.316 10.132 2.084 15.376 8.279 33.214 12.539 51.676 11.625-11.005 12.024-20.003 25.53-26.629 40.182-2.141 4.735-1.769 10.019.88 14.307-20.75 60.114 2.412 126.7 60.639 164.885-17.416 19.129-28.887 43.218-32.589 68.785-2.01 13.879 8.834 26.289 22.836 26.289h164.986c4.143 0 7.5-3.358 7.5-7.5s-3.357-7.5-7.5-7.5h-164.986c-4.78 0-8.705-4.208-7.991-9.139 3.423-23.634 14.361-45.842 30.967-63.111 24.336 12.937 52.653 20.369 82.854 20.369 28.577 0 56.44-6.698 81.086-19.394 6.132 8.818 30.264 29.154 33.555 71.275h-19.825c-4.142 0-7.5 3.358-7.5 7.5s3.358 7.5 7.5 7.5h72.631c13.584 0 24.323-11.713 22.955-25.211zm-432.643-264.845c-26.766 0-43.338-29.219-29.825-52.145 18.528 14.83 42.029 20.833 64.429 17.42 0 .039.003.079.003.118 0 19.082-15.525 34.607-34.607 34.607zm98.314 21.971c37.342-82.576 149.841-113.116 231.301-63.001 25.103 15.444 44.513 36.911 56.129 62.079.382.831-.249 1.626-1.071 1.636-.001 0-.001 0-.001 0-27.348.314-55.517-8.179-79.335-23.943-4.72-3.121-10.888-2.83-15.35.725-22.757 18.121-60.755 24.155-81.381 26.14-10.444 1.005-19.4-7.488-18.849-18.021.086-1.661.212-3.32.372-4.933 1.018-10.249-10.151-17.182-18.886-11.796-19.492 12.018-48.674 24.682-72.618 31.515-.144.04-.177.05-.28-.068-.119-.14-.091-.2-.031-.333zm219.047 168.019c-22.744 11.907-48.582 18.185-75.12 18.185-99.786 0-170.651-86.032-143.335-170.793 1.274-.037 2.56-.224 3.835-.588 23.82-6.797 51.516-18.588 72.068-30.588-1.227 20.814 16.1 36.174 35.232 34.331 26.82-2.58 63.711-9.625 88.219-28.499 26.042 16.899 56.733 25.986 86.588 25.645.271-.003.541-.018.81-.035 3.819 11.941 5.758 24.303 5.758 36.847 0 25.621-8.044 50.293-23.303 71.728-12.859-4.806-28.003-2.576-39.094 7.493-10.42 9.462-14.389 23.407-11.658 36.274zm33.767 24.821c-3.956-5.844-8.482-11.569-13.609-17.217-8.599-9.471-7.889-24.172 1.582-32.771 9.492-8.618 24.152-7.912 32.772 1.582 6.417 7.068 12.148 14.301 17.22 21.72-10.98 11.781-27.49 21.632-37.965 26.686zm58.56 60.245h-37.765c-1.208-17.081-5.488-32.642-13.083-47.309 11.432-5.636 26.826-15.178 38.41-26.529 11.343 20.155 18.097 41.716 20.469 65.14.482 4.753-3.404 8.698-8.031 8.698zm-235.528-361.988c10.876 0 19.725-8.849 19.725-19.725v-33.38c0-10.876-8.849-19.725-19.725-19.725h-33.38c-10.877 0-19.725 8.849-19.725 19.725v33.38c0 10.876 8.849 19.725 19.725 19.725zm-38.105-19.725v-33.38c0-2.605 2.12-4.725 4.725-4.725h33.38c2.605 0 4.725 2.12 4.725 4.725v33.38c0 2.605-2.12 4.725-4.725 4.725h-33.38c-2.605 0-4.725-2.12-4.725-4.725zm-85.699 21.752c21.197 0 38.442-17.245 38.442-38.442s-17.245-38.442-38.442-38.442-38.442 17.245-38.442 38.442 17.245 38.442 38.442 38.442zm0-61.884c12.926 0 23.442 10.516 23.442 23.442s-10.516 23.442-23.442 23.442-23.442-10.516-23.442-23.442 10.516-23.442 23.442-23.442zm254.333 213.67c-4.143 0-7.5 3.358-7.5 7.5v12c0 4.142 3.357 7.5 7.5 7.5s7.5-3.358 7.5-7.5v-12c0-4.142-3.357-7.5-7.5-7.5zm-43.146 19.701c-12.1-4.946-27.835-4.976-35.507-4.976h-.26c-4.143 0-7.5 3.358-7.5 7.5s3.357 7.5 7.5 7.5h.12c6.125-.005 20.525 0 29.971 3.86 3.85 1.575 8.22-.288 9.78-4.104 1.568-3.834-.27-8.213-4.104-9.78zm-74.396-31.631c-4.424 2.657-10.287 2.658-14.71 0-3.552-2.134-8.159-.983-10.292 2.567-2.133 3.551-.984 8.158 2.567 10.292 2.585 1.553 5.392 2.674 8.307 3.365-.462.973-.728 2.057-.728 3.206v12c0 4.142 3.358 7.5 7.5 7.5s7.5-3.358 7.5-7.5v-12c0-1.149-.266-2.233-.728-3.206 2.915-.691 5.722-1.812 8.308-3.365 3.551-2.133 4.7-6.74 2.567-10.291-2.133-3.552-6.74-4.7-10.291-2.568z"/></g></svg>