<svg id="Capa_1" enable-background="new 0 0 512 512" height="512" viewBox="0 0 512 512" width="512" xmlns="http://www.w3.org/2000/svg"><g><path d="m487.279 295.205-18.458 8.647c-28.189 13.206-58.938 20.051-90.067 20.051h-205.541c-11.313 0-22.503-2.357-32.855-6.921l-105.058-46.313c-14.863-6.552-24.455-21.263-24.455-37.507v-9.147c0-12.392 10.046-22.437 22.437-22.437h358.433c33.953 0 66.738 12.396 92.197 34.86l10.47 9.238c6.437 5.68 10.124 13.851 10.124 22.435 0 11.609-6.715 22.17-17.227 27.094z" fill="#d6e0f4"/><path d="m491.608 272.424-18.458 8.647c-28.189 13.206-58.938 20.051-90.067 20.051h-205.541c-11.313 0-22.503-2.357-32.855-6.921l-105.058-46.314c-14.749-6.502-24.295-21.04-24.441-37.135-2.728 3.716-4.342 8.3-4.342 13.263v9.147c0 16.244 9.592 30.954 24.455 37.507l105.058 46.314c10.352 4.564 21.542 6.921 32.855 6.921h205.541c31.129 0 61.878-6.845 90.067-20.051l18.458-8.647c10.512-4.925 17.227-15.486 17.227-27.095 0-2.123-.227-4.22-.664-6.26-2.977 4.492-7.157 8.194-12.235 10.573z" fill="#b8c9ea"/><path d="m402.348 245.926 14.333 10.531c4.428 3.254 9.78 5.009 15.275 5.009h71.796c-1.381-6.062-4.626-11.604-9.37-15.79l-10.47-9.238c-1.711-1.51-3.458-2.97-5.233-4.388h-71.78c-7.424-.001-10.533 9.481-4.551 13.876z" fill="#6a61b2"/><path d="m139.865 377.23h25.872c9.169 0 18.213-2.13 26.418-6.223l144.662-72.159c3.273-1.633 2.111-6.565-1.547-6.565h-128.469c-2.771 0-5.418 1.143-7.318 3.16l-65.092 69.11c-4.52 4.799-1.118 12.677 5.474 12.677z" fill="#e27f86"/><path d="m13.446 281.283h14.299c4.078 0 8.103-.923 11.774-2.699l49.565-23.981c6.52-3.155 4.273-12.956-2.97-12.956h-45.39c-3.614 0-7.051 1.561-9.429 4.281l-22.312 25.525c-3.351 3.834-.629 9.83 4.463 9.83z" fill="#e27f86"/><path d="m34.276 134.77h17.799c10.066 0 19.705 4.063 26.733 11.269l54.171 55.538h-77.945l-25.299-59.962c-1.371-3.249 1.014-6.845 4.541-6.845z" fill="#e27f86"/><g fill="#6a61b2"><path d="m317.287 245.374v2.767c0 7.359 5.966 13.325 13.325 13.325h14.125c7.359 0 13.325-5.966 13.325-13.325v-2.767c0-7.359-5.966-13.325-13.325-13.325h-14.125c-7.359 0-13.325 5.966-13.325 13.325z"/><path d="m237.421 245.374v2.767c0 7.359 5.966 13.325 13.325 13.325h14.125c7.359 0 13.325-5.966 13.325-13.325v-2.767c0-7.359-5.966-13.325-13.325-13.325h-14.125c-7.359 0-13.325 5.966-13.325 13.325z"/><path d="m157.554 245.374v2.767c0 7.359 5.966 13.325 13.325 13.325h14.125c7.359 0 13.325-5.966 13.325-13.325v-2.767c0-7.359-5.966-13.325-13.325-13.325h-14.125c-7.359 0-13.325 5.966-13.325 13.325z"/></g><g><path d="m511.095 259.961c-.004-.02-.01-.038-.014-.058-1.715-7.615-5.783-14.586-11.738-19.846l-10.469-9.24c-26.842-23.689-61.348-36.736-97.161-36.736h-35.479c-4.142 0-7.5 3.358-7.5 7.5s3.358 7.5 7.5 7.5h35.479c21.788 0 43.033 5.384 61.967 15.468h-46.785c-6.683 0-12.346 4.103-14.428 10.454-2.082 6.35.053 13.01 5.438 16.966l14.333 10.531c5.756 4.229 12.573 6.464 19.715 6.464h65.017c-.322 8.326-5.297 15.898-12.878 19.451l-18.464 8.642c-26.991 12.653-57.031 19.34-86.874 19.34h-60.324l21.732-10.84c4.574-2.282 6.951-7.35 5.778-12.326-1.172-4.976-5.561-8.451-10.673-8.451h-128.465c-4.817 0-9.474 2.011-12.778 5.518l-24.48 25.991c-9.046-.434-17.832-2.497-26.16-6.175l-20.1-8.86c-3.788-1.671-8.217.047-9.887 3.838-1.671 3.79.047 8.217 3.838 9.887l20.095 8.858c6.276 2.772 12.77 4.787 19.421 6.035l-27.817 29.534c-4.176 4.434-5.269 10.662-2.855 16.254 2.415 5.591 7.699 9.065 13.789 9.065h25.871c10.277 0 20.569-2.425 29.764-7.012l92.856-46.317h90.394c32.029 0 64.271-7.178 93.237-20.756l18.463-8.64c13.089-6.134 21.547-19.437 21.547-33.89 0-2.765-.312-5.495-.905-8.149zm-322.287 104.332c-7.127 3.555-15.104 5.434-23.069 5.434h-25.871l.013.04c-.02-.021-.043-.075-.029-.075l65.092-69.108c.481-.511 1.158-.803 1.859-.803h111.337zm232.309-113.879-14.333-10.532c-.05-.036-.079-.064-.09-.069-.002-.083.045-.227.053-.25 0 0 .043-.013.147-.013h69.109c.991.824 1.976 1.659 2.945 2.514l10.467 9.238c.931.822 1.782 1.715 2.555 2.664h-60.018c-3.925 0-7.671-1.229-10.835-3.552z"/><path d="m86.119 234.149h-45.389c-5.779 0-11.274 2.495-15.075 6.845l-4.612 5.276c-1.755-4.126-2.69-8.589-2.69-13.109v-9.15c0-8.232 6.702-14.929 14.94-14.929h287.943c4.142 0 7.5-3.358 7.5-7.5s-3.358-7.5-7.5-7.5h-185.089l-51.965-53.277c-8.388-8.6-20.089-13.532-32.102-13.532h-17.799c-4.176 0-8.048 2.078-10.356 5.557-2.309 3.48-2.719 7.855-1.095 11.703l20.906 49.548h-10.444c-16.508 0-29.939 13.426-29.939 29.929v9.15c0 8.905 2.49 17.662 7.093 25.231l-7.103 8.125c-3.512 4.017-4.323 9.531-2.118 14.389 2.206 4.858 6.891 7.877 12.227 7.877h14.298c5.178 0 10.378-1.192 15.04-3.447l3.43-1.66 38.985 17.185c.984.434 2.011.639 3.021.639 2.881 0 5.63-1.67 6.867-4.476 1.671-3.79-.047-8.217-3.837-9.888l-27.307-12.038 28.405-13.743c6.142-2.972 9.245-9.436 7.721-16.087-1.525-6.649-7.133-11.118-13.956-11.118zm-47.963-91.876h13.924c7.994 0 15.781 3.283 21.364 9.006l41.749 42.803h-55.177zm4.808 126.316c-.139.063-.276.128-.411.199l-6.295 3.046c-2.637 1.276-5.579 1.95-8.508 1.95h-10.836l20.034-22.918c.954-1.091 2.332-1.717 3.782-1.717h42.413z"/><path d="m309.786 245.374v2.767c0 11.483 9.342 20.825 20.825 20.825h14.124c11.483 0 20.825-9.342 20.825-20.825v-2.767c0-11.483-9.342-20.825-20.825-20.825h-14.125c-11.482.001-20.824 9.343-20.824 20.825zm14.999 0c0-3.212 2.613-5.825 5.825-5.825h14.124c3.212 0 5.825 2.613 5.825 5.825v2.767c0 3.212-2.613 5.825-5.825 5.825h-14.124c-3.212 0-5.825-2.613-5.825-5.825z"/><path d="m250.746 224.55c-11.483 0-20.825 9.342-20.825 20.825v2.767c0 11.483 9.342 20.825 20.825 20.825h14.124c11.483 0 20.825-9.342 20.825-20.825v-2.767c0-11.483-9.342-20.825-20.825-20.825zm19.949 20.824v2.767c0 3.212-2.613 5.825-5.825 5.825h-14.124c-3.212 0-5.825-2.613-5.825-5.825v-2.767c0-3.212 2.613-5.825 5.825-5.825h14.124c3.212 0 5.825 2.613 5.825 5.825z"/><path d="m170.882 224.55c-11.483 0-20.825 9.342-20.825 20.825v2.767c0 11.483 9.342 20.825 20.825 20.825h14.124c11.483 0 20.825-9.342 20.825-20.825v-2.767c0-11.483-9.342-20.825-20.825-20.825zm19.949 20.824v2.767c0 3.212-2.613 5.825-5.825 5.825h-14.124c-3.212 0-5.825-2.613-5.825-5.825v-2.767c0-3.212 2.613-5.825 5.825-5.825h14.124c3.212 0 5.825 2.613 5.825 5.825z"/></g></g></svg>