<svg id="Capa_1" enable-background="new 0 0 474.386 474.386" height="512" viewBox="0 0 474.386 474.386" width="512" xmlns="http://www.w3.org/2000/svg"><g><g><path d="m237.271 455.167c-32.966 0-59.938-26.972-59.938-59.937v-46.125c0-32.966 26.972-59.937 59.937-59.937 32.966 0 59.937 26.972 59.937 59.937v46.125c.001 32.965-26.971 59.937-59.936 59.937z" fill="#ffc277"/><path d="m237.271 289.167c-12.021 0-23.235 3.599-32.645 9.754 5.529-1.88 11.439-2.917 17.582-2.917 30.25 0 55 24.75 55 55v42.325c0 30.25-24.75 55-55 55-6.144 0-12.054-1.036-17.582-2.917 9.41 6.155 20.624 9.754 32.645 9.754 32.966 0 59.938-26.972 59.938-59.938v-46.125c-.001-32.964-26.973-59.936-59.938-59.936z" fill="#ff905b"/><path d="m237.271 251.332c-11.648 0-22.198-4.491-29.875-11.76v57.645c8.81-5.106 19.013-8.049 29.875-8.049 10.914 0 21.161 2.97 30 8.122v-57.832c-7.688 7.336-18.29 11.874-30 11.874z" fill="#ff905b"/><ellipse cx="237.271" cy="210.627" fill="#ffc277" rx="42.5" ry="40.704"/><g fill="#ff905b"><path d="m237.271 169.923c-5.164 0-10.112.884-14.69 2.499 20.779 1.383 37.19 17.953 37.19 38.205s-16.411 36.822-37.19 38.205c4.578 1.615 9.526 2.499 14.69 2.499 23.472 0 42.5-18.224 42.5-40.704s-19.028-40.704-42.5-40.704z"/><circle cx="237.271" cy="114.043" r="55.88"/></g></g><g><path d="m206.291 109.036c-.266 1.648-.4 3.333-.4 5.007 0 17.303 14.077 31.38 31.38 31.38v-15c-9.032 0-16.38-7.348-16.38-16.38 0-.878.07-1.76.209-2.621z"/><path d="m186.784 409.374-14.436 4.076c1.525 5.401 3.733 10.61 6.564 15.484l12.971-7.534c-2.199-3.787-3.915-7.834-5.099-12.026z"/><path d="m404.068 267.667-74.875-44.938h-43.52c1.042-3.869 1.597-7.924 1.597-12.102 0-6.3-1.273-12.314-3.563-17.835h31.511l49.521-49.453v-60.003l27.804-27.803-10.607-10.606-32.196 32.196v59.997l-40.729 40.672h-35.181c-2.527-2.614-5.346-4.96-8.415-6.982 20.862-10.385 35.236-31.924 35.236-56.767 0-1.408-.047-2.829-.139-4.225l-14.967.983c.069 1.07.105 2.161.105 3.242 0 26.677-21.703 48.38-48.38 48.38s-48.38-21.703-48.38-48.38 21.703-48.38 48.38-48.38c20.422 0 38.744 12.918 45.591 32.145l14.131-5.032c-1.115-3.132-2.464-6.135-4.02-8.995l26.768-13.938v-46.516l12.689-12.743-10.628-10.584-17.061 17.132v43.609l-18.295 9.526c.542-2.86.825-5.77.825-8.708 0-15.143-7.162-29.106-19.65-38.312l-8.9 12.074c8.52 6.281 13.438 15.71 13.541 25.911-10.16-6.73-22.262-10.569-34.99-10.569-12.927 0-24.956 3.898-34.99 10.568.104-10.2 5.02-19.629 13.54-25.91l-8.9-12.074c-12.487 9.206-19.649 23.17-19.649 38.312 0 2.946.282 5.861.826 8.725l-18.326-9.542v-43.61l-17.062-17.132-10.629 10.584 12.689 12.743v46.516l26.812 13.96c-4.903 8.993-7.692 19.296-7.692 30.24 0 24.843 14.374 46.381 35.236 56.767-3.069 2.022-5.888 4.369-8.415 6.982h-35.212l-40.729-40.672v-59.997l-32.196-32.197-10.607 10.607 27.804 27.803v60.003l49.521 49.453h31.541c-2.29 5.521-3.563 11.536-3.563 17.835 0 4.178.556 8.233 1.597 12.102h-43.676l-74.875 44.938h-43.045v15h47.203l74.875-44.938h46.598c1.208 1.706 2.53 3.33 3.949 4.87v14.611l-90 58.966v106.722l-28.743 43.174 12.486 8.312 31.257-46.951v-103.151l75-49.139v17.862c-18.109 12.105-30.062 32.73-30.062 56.1v46.125c0 .5.006 1 .017 1.498l14.996-.33c-.009-.389-.013-.778-.013-1.168v-46.125c0-18.648 9.793-35.043 24.498-44.342 0 0 1.825-1.058 1.825-1.058 15.766-9.139 35.725-9.27 51.607-.355.245.137.488.277.731.418l1.81 1.055c14.653 9.31 24.404 25.673 24.404 44.281v46.125c0 28.914-23.523 52.438-52.438 52.438-14.096 0-27.35-5.577-37.32-15.705l-10.689 10.523c12.813 13.014 29.863 20.181 48.01 20.181 37.186 0 67.438-30.252 67.438-67.438v-46.125c0-23.317-11.897-43.904-29.938-56.019v-17.84l74.845 49.037v103.153l31.257 46.951 12.486-8.312-28.743-43.174v-106.722l-89.845-58.865v-14.852c1.371-1.499 2.652-3.076 3.824-4.731h46.442l74.875 44.938h47.203v-15zm-131.797-57.04c0 4.66-1.042 9.293-3.029 13.508-1.959 4.155-4.807 7.87-8.262 10.893-3.538 3.095-7.7 5.458-12.16 6.941-5.835 1.94-12.203 2.365-18.249 1.248-4.712-.87-9.244-2.68-13.244-5.321-3.865-2.551-7.223-5.87-9.77-9.741-2.55-3.876-4.263-8.288-4.944-12.88-.228-1.538-.342-3.093-.342-4.648 0-18.309 15.701-33.204 35-33.204s35 14.896 35 33.204zm-23.476 72.048c-.925-.159-1.854-.299-2.786-.42-4.963-.646-9.997-.75-14.981-.286-2.718.253-5.416.671-8.083 1.249-.79.171-8.05 1.667-8.05 2.281 0 0 0-31.616 0-31.742 0 1.179 8.907 3.303 10.009 3.572 6.581 1.608 13.472 1.905 20.171.906 5.079-.757 10.077-2.288 14.695-4.535v31.841c0-.5-6.137-1.852-6.804-2.011-1.381-.33-2.772-.614-4.171-.855z"/><g fill="#fff"><path d="m257.708 365.229h15v15h-15z"/><path d="m272.708 349.104c0-5.805-1.441-11.568-4.169-16.667l-13.227 7.074c1.59 2.972 2.396 6.2 2.396 9.593v1.375h15z"/><path d="m237.271 328.667c3.687 0 7.3.996 10.45 2.881l7.701-12.872c-5.477-3.277-11.753-5.009-18.151-5.009z"/></g></g></g></svg>