<?xml version="1.0" encoding="iso-8859-1"?>
<!-- Generator: Adobe Illustrator 19.0.0, SVG Export Plug-In . SVG Version: 6.00 Build 0)  -->
<svg version="1.1" id="Capa_1" xmlns="http://www.w3.org/2000/svg" xmlns:xlink="http://www.w3.org/1999/xlink" x="0px" y="0px"
	 viewBox="0 0 512 512" style="enable-background:new 0 0 512 512;" xml:space="preserve">
<linearGradient id="SVGID_1_" gradientUnits="userSpaceOnUse" x1="411.1266" y1="483.2248" x2="281.3466" y2="353.4548" gradientTransform="matrix(1.0039 0 0 -1.0039 0.1922 516.5604)">
	<stop  offset="0" style="stop-color:#9EB644"/>
	<stop  offset="1" style="stop-color:#738611"/>
</linearGradient>
<path style="fill:url(#SVGID_1_);" d="M428.9,4.592c-27.306,0.282-98.632,9.753-100.995,100.758
	c-0.161,6.199,4.916,11.275,11.114,11.114c91.004-2.362,100.475-73.689,100.758-100.995C439.84,9.445,434.926,4.529,428.9,4.592z"/>
<linearGradient id="SVGID_2_" gradientUnits="userSpaceOnUse" x1="407.0081" y1="429.4123" x2="310.0581" y2="526.3563" gradientTransform="matrix(1.0039 0 0 -1.0039 0.1922 516.5604)">
	<stop  offset="0" style="stop-color:#738611;stop-opacity:0"/>
	<stop  offset="1" style="stop-color:#738611"/>
</linearGradient>
<path style="fill:url(#SVGID_2_);" d="M436.666,7.796L331.128,113.336c2.021,1.997,4.818,3.209,7.894,3.128
	c91.004-2.362,100.475-73.689,100.758-100.995C439.809,12.481,438.613,9.767,436.666,7.796z"/>
<linearGradient id="SVGID_3_" gradientUnits="userSpaceOnUse" x1="309.9105" y1="503.4039" x2="340.9705" y2="39.5329" gradientTransform="matrix(1.0039 0 0 -1.0039 0.1922 516.5604)">
	<stop  offset="0" style="stop-color:#FF5964"/>
	<stop  offset="0.306" style="stop-color:#FF5661"/>
	<stop  offset="0.534" style="stop-color:#FF4D58"/>
	<stop  offset="0.735" style="stop-color:#FF3E48"/>
	<stop  offset="0.921" style="stop-color:#FF2831"/>
	<stop  offset="1" style="stop-color:#FF1D25"/>
</linearGradient>
<path style="fill:url(#SVGID_3_);" d="M388.603,86.797c-24.044,5.176-46.589,26.442-62.958,26.442s-38.914-21.266-62.958-26.442
	c-51.003-6.673-123.397,28.96-123.397,138.507s79.327,198.947,113.324,198.947c37.775,0,42.811-17.628,73.031-17.628
	c30.22,0,35.257,17.628,73.031,17.628c33.998,0,113.324-89.4,113.324-198.947S439.605,80.123,388.603,86.797z"/>
<linearGradient id="SVGID_4_" gradientUnits="userSpaceOnUse" x1="405.9742" y1="374.6015" x2="384.9142" y2="447.7695" gradientTransform="matrix(1.0039 0 0 -1.0039 0.1922 516.5604)">
	<stop  offset="0" style="stop-color:#FF1D25;stop-opacity:0"/>
	<stop  offset="1" style="stop-color:#FF1D25"/>
</linearGradient>
<path style="fill:url(#SVGID_4_);" d="M414.582,87.013c-8.954-1.261-17.746-1.294-25.979-0.216
	c-24.044,5.176-46.589,26.442-62.958,26.442c-0.416,0-0.837-0.023-1.261-0.049v26.659l22.304,4.159L500.2,172.632L414.582,87.013z"
	/>
<linearGradient id="SVGID_5_" gradientUnits="userSpaceOnUse" x1="269.1416" y1="441.8249" x2="333.3436" y2="441.8249" gradientTransform="matrix(1.0039 0 0 -1.0039 0.1922 516.5604)">
	<stop  offset="0" style="stop-color:#654E48"/>
	<stop  offset="1" style="stop-color:#503837"/>
</linearGradient>
<path style="fill:url(#SVGID_5_);" d="M334.843,140.988c-3.285,0.277-6.674,0.427-10.121,0.427c-2.432,0-4.818-0.069-7.17-0.219
	c-0.288-16.702-2.121-37.197-7.631-57.691c-3.274-12.207-7.862-24.425-14.213-35.848c-10.743-19.307-21.612-27.307-21.728-27.388
	c-3.85-2.79-4.75-8.173-1.994-12.046c2.767-3.861,8.104-4.795,11.988-2.063c1.579,1.106,29.97,21.763,43.64,76.458
	C331.708,98.926,334.474,118.246,334.843,140.988z"/>
<linearGradient id="SVGID_6_" gradientUnits="userSpaceOnUse" x1="379.9492" y1="173.9574" x2="2.7691" y2="70.5175" gradientTransform="matrix(1.0039 0 0 -1.0039 0.1922 516.5604)">
	<stop  offset="0" style="stop-color:#FF1D25;stop-opacity:0"/>
	<stop  offset="1" style="stop-color:#FF1D25"/>
</linearGradient>
<path style="fill:url(#SVGID_6_);" d="M156.979,315.671c25.387,64.354,71.722,108.58,95.635,108.58
	c37.775,0,42.811-17.628,73.031-17.628s35.257,17.628,73.031,17.628c23.911,0,70.246-44.226,95.635-108.58H156.979z"/>
<linearGradient id="SVGID_7_" gradientUnits="userSpaceOnUse" x1="404.1998" y1="308.1837" x2="283.4898" y2="456.3637" gradientTransform="matrix(1.0039 0 0 -1.0039 0.1922 516.5604)">
	<stop  offset="0" style="stop-color:#FF1D25;stop-opacity:0"/>
	<stop  offset="1" style="stop-color:#FF1D25"/>
</linearGradient>
<path style="fill:url(#SVGID_7_);" d="M392.459,120.421c-2.486,1.853-5.043,3.421-7.665,4.807c-2.67,1.32-5.349,2.52-8.107,3.528
	c-5.489,2.053-11.159,3.524-16.866,4.687c-11.429,2.304-23.085,3.274-34.748,3.284c-11.64-0.042-23.334-0.99-34.751-3.292
	c-5.72-1.134-11.356-2.671-16.854-4.703c-2.783-0.969-5.427-2.218-8.115-3.512c-1.29-0.714-2.644-1.388-3.878-2.233
	c-1.335-0.74-2.494-1.691-3.792-2.567c1.731,2.987,4.006,5.663,6.575,8.061l110.902,110.902c2.602,2.828,5.65,5.307,8.853,7.444
	c5.278,3.525,11.057,6.261,17.015,8.361c11.962,4.184,24.571,6.033,37.164,6.056c12.567-0.02,25.215-1.892,37.156-6.079
	c5.947-2.133,11.746-4.797,17.018-8.339c5.231-3.528,10.095-7.898,13.211-13.285L392.459,120.421z"/>
<linearGradient id="SVGID_8_" gradientUnits="userSpaceOnUse" x1="312.4764" y1="383.2079" x2="2.3764" y2="342.8179" gradientTransform="matrix(1.0039 0 0 -1.0039 0.1922 516.5604)">
	<stop  offset="0" style="stop-color:#FF5964"/>
	<stop  offset="0.306" style="stop-color:#FF5661"/>
	<stop  offset="0.534" style="stop-color:#FF4D58"/>
	<stop  offset="0.735" style="stop-color:#FF3E48"/>
	<stop  offset="0.921" style="stop-color:#FF2831"/>
	<stop  offset="1" style="stop-color:#FF1D25"/>
</linearGradient>
<path style="fill:url(#SVGID_8_);" d="M392.459,120.421c-3.115,5.388-7.979,9.758-13.211,13.285
	c-5.273,3.542-11.071,6.205-17.018,8.339c-11.942,4.186-24.589,6.059-37.156,6.079c-12.593-0.023-25.202-1.871-37.164-6.056
	c-5.958-2.099-11.738-4.836-17.015-8.361c-5.245-3.5-10.092-7.906-13.21-13.287c1.298,0.876,2.457,1.827,3.792,2.567
	c1.235,0.843,2.588,1.519,3.878,2.233c2.688,1.294,5.332,2.543,8.115,3.512c5.497,2.032,11.133,3.569,16.854,4.703
	c11.417,2.301,23.11,3.25,34.751,3.292c11.663-0.01,23.319-0.98,34.748-3.284c5.706-1.164,11.376-2.633,16.866-4.687
	c2.758-1.008,5.436-2.208,8.107-3.528C387.415,123.842,389.972,122.274,392.459,120.421z"/>
<linearGradient id="SVGID_9_" gradientUnits="userSpaceOnUse" x1="376.9908" y1="110.3849" x2="254.2007" y2="233.1749" gradientTransform="matrix(1.0039 0 0 -1.0039 0.1922 516.5604)">
	<stop  offset="0" style="stop-color:#FF1D25;stop-opacity:0"/>
	<stop  offset="1" style="stop-color:#FF1D25"/>
</linearGradient>
<path style="fill:url(#SVGID_9_);" d="M337.377,202.717c-17.954-19.274-40.491-29.505-62.085-32.545l0,0
	c-3.297-0.464-6.571-0.76-9.804-0.897c-0.114-0.005-0.23-0.01-0.344-0.014c-1.015-0.039-2.026-0.065-3.032-0.072
	c-0.035,0-0.07-0.001-0.105-0.002c-1.064-0.007-2.122,0.003-3.174,0.03c-0.069,0.002-0.138,0.006-0.207,0.008
	c-0.904,0.026-1.802,0.066-2.697,0.117c-0.267,0.015-0.533,0.033-0.799,0.05c-0.725,0.048-1.447,0.104-2.165,0.169
	c-0.273,0.024-0.546,0.047-0.818,0.073c-0.951,0.093-1.896,0.198-2.832,0.32c-7.513,1.617-14.881,4.807-21.959,8.426
	c-1.416,0.724-2.82,1.466-4.211,2.215c-0.696,0.374-1.388,0.752-2.077,1.129c-13.094,7.175-24.991,14.672-34.711,14.672
	c-0.416,0-0.837-0.023-1.261-0.049l0,0c-11.241-0.712-25.234-10.646-40.545-18.377c-3.369,13.949-5.259,29.676-5.259,47.333
	c0,109.547,79.327,198.947,113.324,198.947c37.775,0,42.811-17.628,73.031-17.628s35.257,17.628,73.031,17.628
	c19.984,0,55.627-30.9,81.619-78.616L337.377,202.717z"/>
<linearGradient id="SVGID_10_" gradientUnits="userSpaceOnUse" x1="72.6017" y1="421.6777" x2="309.9317" y2="-42.1933" gradientTransform="matrix(1.0039 0 0 -1.0039 0.1922 516.5604)">
	<stop  offset="0" style="stop-color:#FF5964"/>
	<stop  offset="0.306" style="stop-color:#FF5661"/>
	<stop  offset="0.534" style="stop-color:#FF4D58"/>
	<stop  offset="0.735" style="stop-color:#FF3E48"/>
	<stop  offset="0.921" style="stop-color:#FF2831"/>
	<stop  offset="1" style="stop-color:#FF1D25"/>
</linearGradient>
<path style="fill:url(#SVGID_10_);" d="M249.313,169.955c-24.044,5.176-46.589,26.442-62.958,26.442s-38.914-21.266-62.958-26.442
	C72.395,163.281,0,198.915,0,308.462s79.327,198.947,113.324,198.947c37.775,0,42.811-17.628,73.031-17.628
	s35.257,17.628,73.031,17.628c33.998,0,113.324-89.4,113.324-198.947S300.316,163.281,249.313,169.955z"/>
<linearGradient id="SVGID_11_" gradientUnits="userSpaceOnUse" x1="370.2448" y1="126.5132" x2="-6.9353" y2="23.0733" gradientTransform="matrix(1.0039 0 0 -1.0039 0.1922 516.5604)">
	<stop  offset="0" style="stop-color:#FF1D25;stop-opacity:0"/>
	<stop  offset="1" style="stop-color:#FF1D25"/>
</linearGradient>
<path style="fill:url(#SVGID_11_);" d="M17.69,398.829c25.387,64.354,71.722,108.58,95.635,108.58
	c37.775,0,42.811-17.628,73.031-17.628s35.257,17.628,73.031,17.628c23.911,0,70.246-44.226,95.635-108.58H17.69z"/>
<radialGradient id="SVGID_12_" cx="194.6286" cy="180.3328" r="330.52" gradientTransform="matrix(1.0039 0 0 -1.0039 0.1922 516.5604)" gradientUnits="userSpaceOnUse">
	<stop  offset="0" style="stop-color:#FFE7A5"/>
	<stop  offset="0.216" style="stop-color:#FFE29C"/>
	<stop  offset="0.577" style="stop-color:#FFD482"/>
	<stop  offset="1" style="stop-color:#FFBF5C"/>
</radialGradient>
<path style="fill:url(#SVGID_12_);" d="M244.839,181.915c-22.335,4.808-43.278,24.564-58.484,24.564
	c-15.205,0-36.149-19.755-58.484-24.564c-47.379-6.199-114.63,26.903-114.63,128.666c0,101.764,73.691,184.811,105.272,184.811
	c35.091,0,39.769-16.376,67.842-16.376c28.073,0,32.751,16.376,67.842,16.376c31.581,0,105.272-83.048,105.272-184.811
	S292.219,175.716,244.839,181.915z"/>
<linearGradient id="SVGID_13_" gradientUnits="userSpaceOnUse" x1="185.4361" y1="89.2128" x2="185.4361" y2="24.6928" gradientTransform="matrix(1.0039 0 0 -1.0039 0.1922 516.5604)">
	<stop  offset="0" style="stop-color:#FFBF5C;stop-opacity:0"/>
	<stop  offset="1" style="stop-color:#FFBF5C"/>
</linearGradient>
<path style="fill:url(#SVGID_13_);" d="M341.291,398.829H31.42c23.908,57.441,65.418,96.564,87.093,96.564
	c35.091,0,39.769-16.376,67.842-16.376c28.073,0,32.751,16.376,67.842,16.376C275.873,495.393,317.382,456.27,341.291,398.829z"/>
<linearGradient id="SVGID_14_" gradientUnits="userSpaceOnUse" x1="183.8463" y1="169.4984" x2="266.7563" y2="104.9783" gradientTransform="matrix(1.0039 0 0 -1.0039 0.1922 516.5604)">
	<stop  offset="0" style="stop-color:#FFBF5C;stop-opacity:0"/>
	<stop  offset="1" style="stop-color:#FFBF5C"/>
</linearGradient>
<path style="fill:url(#SVGID_14_);" d="M169.12,201.037v38.826c0,26.15-10.388,51.228-28.879,69.719l0,0
	c-21.757,21.757-21.757,57.032,0,78.789l5.962,5.962c18.49,18.49,28.879,59.544,28.879,85.693l0,0
	c3.352-0.631,7.044-1.008,11.273-1.008V206.479C181.211,206.479,175.408,204.215,169.12,201.037z"/>
<linearGradient id="SVGID_15_" gradientUnits="userSpaceOnUse" x1="185.8141" y1="168.4503" x2="105.0041" y2="103.9303" gradientTransform="matrix(1.0039 0 0 -1.0039 0.1922 516.5604)">
	<stop  offset="0" style="stop-color:#FFBF5C;stop-opacity:0"/>
	<stop  offset="1" style="stop-color:#FFBF5C"/>
</linearGradient>
<path style="fill:url(#SVGID_15_);" d="M203.59,201.037v38.826c0,26.15,10.388,51.228,28.879,69.719l0,0
	c21.757,21.757,21.757,57.032,0,78.789l-5.962,5.962c-18.49,18.49-28.879,59.544-28.879,85.693l0,0
	c-3.352-0.631-7.044-1.008-11.273-1.008V206.479C191.499,206.479,197.302,204.215,203.59,201.037z"/>
<linearGradient id="SVGID_16_" gradientUnits="userSpaceOnUse" x1="154.1571" y1="234.5228" x2="154.1571" y2="121.6828" gradientTransform="matrix(1.0039 0 0 -1.0039 0.1922 516.5604)">
	<stop  offset="0" style="stop-color:#FFBF5C;stop-opacity:0"/>
	<stop  offset="1" style="stop-color:#FFBF5C"/>
</linearGradient>
<path style="fill:url(#SVGID_16_);" d="M172.792,352.5c-7.229,17.24-21.076,27.867-30.928,23.737
	c-9.851-4.131-11.978-21.456-4.749-38.696s21.076-27.867,30.928-23.737C177.895,317.935,180.021,335.259,172.792,352.5z"/>
<linearGradient id="SVGID_17_" gradientUnits="userSpaceOnUse" x1="178.0276" y1="154.1018" x2="123.7976" y2="208.3318" gradientTransform="matrix(1.0039 0 0 -1.0039 0.1922 516.5604)">
	<stop  offset="0" style="stop-color:#FF931E;stop-opacity:0"/>
	<stop  offset="1" style="stop-color:#FF5D00"/>
</linearGradient>
<path style="fill:url(#SVGID_17_);" d="M166.854,324.206c-0.684-0.779-1.485-1.398-2.421-1.791
	c-5.549-2.327-13.347,3.658-17.419,13.368c-3.612,8.614-3.069,17.253,0.971,20.721l35.899,35.899
	c0.684,0.779,1.485,1.398,2.42,1.791c5.549,2.327,13.347-3.658,17.419-13.369c3.612-8.614,3.069-17.253-0.971-20.721
	L166.854,324.206z"/>
<linearGradient id="SVGID_18_" gradientUnits="userSpaceOnUse" x1="146.2494" y1="180.0741" x2="166.2608" y2="171.6735" gradientTransform="matrix(1.0039 0 0 -1.0039 0.1922 516.5604)">
	<stop  offset="0" style="stop-color:#654E48"/>
	<stop  offset="1" style="stop-color:#503837"/>
</linearGradient>
<path style="fill:url(#SVGID_18_);" d="M167.107,344.209c-4.072,9.71-11.87,15.695-17.419,13.369
	c-5.549-2.327-6.746-12.084-2.674-21.794c4.072-9.71,11.87-15.695,17.419-13.369C169.981,324.742,171.179,334.499,167.107,344.209z"
	/>
<linearGradient id="SVGID_19_" gradientUnits="userSpaceOnUse" x1="216.7141" y1="234.5228" x2="216.7141" y2="121.6828" gradientTransform="matrix(1.0039 0 0 -1.0039 0.1922 516.5604)">
	<stop  offset="0" style="stop-color:#FFBF5C;stop-opacity:0"/>
	<stop  offset="1" style="stop-color:#FFBF5C"/>
</linearGradient>
<path style="fill:url(#SVGID_19_);" d="M199.918,352.5c7.229,17.24,21.076,27.867,30.928,23.737
	c9.851-4.131,11.978-21.456,4.749-38.696s-21.076-27.867-30.928-23.737C194.815,317.935,192.689,335.259,199.918,352.5z"/>
<linearGradient id="SVGID_20_" gradientUnits="userSpaceOnUse" x1="238.1181" y1="152.3723" x2="190.9981" y2="199.4923" gradientTransform="matrix(1.0039 0 0 -1.0039 0.1922 516.5604)">
	<stop  offset="0" style="stop-color:#FF931E;stop-opacity:0"/>
	<stop  offset="1" style="stop-color:#FF5D00"/>
</linearGradient>
<path style="fill:url(#SVGID_20_);" d="M219.908,326.726c-3.778-3.955-8.147-5.772-11.63-4.311
	c-5.549,2.327-6.746,12.084-2.674,21.794c1.677,3.998,3.985,7.361,6.506,9.775c0.237,0.248,35.899,35.899,35.899,35.899
	c3.778,3.955,8.147,5.772,11.63,4.311c5.549-2.327,6.745-12.084,2.674-21.794c-1.676-3.997-3.985-7.361-6.506-9.775
	C255.807,362.626,220.149,326.958,219.908,326.726z"/>
<linearGradient id="SVGID_21_" gradientUnits="userSpaceOnUse" x1="224.6218" y1="180.0741" x2="204.6104" y2="171.6735" gradientTransform="matrix(1.0039 0 0 -1.0039 0.1922 516.5604)">
	<stop  offset="0" style="stop-color:#654E48"/>
	<stop  offset="1" style="stop-color:#503837"/>
</linearGradient>
<path style="fill:url(#SVGID_21_);" d="M205.603,344.209c4.072,9.71,11.87,15.695,17.419,13.369
	c5.549-2.327,6.746-12.084,2.674-21.794c-4.072-9.71-11.87-15.695-17.419-13.369C202.729,324.742,201.531,334.499,205.603,344.209z"
	/>
<radialGradient id="SVGID_22_" cx="185.1586" cy="35.8028" r="33.5" gradientTransform="matrix(1.0039 0 0 -1.0039 0.1922 516.5604)" gradientUnits="userSpaceOnUse">
	<stop  offset="0" style="stop-color:#503837"/>
	<stop  offset="0.115" style="stop-color:#4C3633;stop-opacity:0.885"/>
	<stop  offset="0.516" style="stop-color:#41302B;stop-opacity:0.484"/>
	<stop  offset="1" style="stop-color:#3E2E28;stop-opacity:0"/>
</radialGradient>
<path style="fill:url(#SVGID_22_);" d="M186.355,446.913c-19.955,0-36.131,16.176-36.131,36.131c0,2.064,0.183,4.085,0.515,6.055
	c10.98-4.616,19.396-10.082,35.617-10.082s24.637,5.465,35.617,10.082c0.332-1.97,0.515-3.991,0.515-6.055
	C222.487,463.089,206.31,446.913,186.355,446.913z"/>
<g>
</g>
<g>
</g>
<g>
</g>
<g>
</g>
<g>
</g>
<g>
</g>
<g>
</g>
<g>
</g>
<g>
</g>
<g>
</g>
<g>
</g>
<g>
</g>
<g>
</g>
<g>
</g>
<g>
</g>
</svg>
