<?xml version="1.0" encoding="iso-8859-1"?>
<!-- Generator: Adobe Illustrator 19.0.0, SVG Export Plug-In . SVG Version: 6.00 Build 0)  -->
<svg version="1.1" id="Capa_1" xmlns="http://www.w3.org/2000/svg" xmlns:xlink="http://www.w3.org/1999/xlink" x="0px" y="0px"
	 viewBox="0 0 512 512" style="enable-background:new 0 0 512 512;" xml:space="preserve">
<path style="fill:#EFEDEE;" d="M349.389,103.625l-43.622,31.678l-16.534,120.696l20.502,120.034l39.654,32.34
	c15.525-2.361,30.554-6.17,44.74-11.349v-282.05C379.943,109.796,364.914,105.986,349.389,103.625z"/>
<path style="fill:#D2D2D2;" d="M353.606,388.198c-8.469,1.281-17.082,2.14-25.784,2.587l21.566,17.588
	c15.525-2.361,30.554-6.17,44.74-11.349v-18.463C381.145,382.837,367.568,386.074,353.606,388.198z"/>
<path style="fill:#FA9F6A;" d="M499.276,293.837l-3.959-6.949l7.328-8.06c1.216-7.367,1.855-14.979,1.855-22.828
	c0-67.586-46.813-117.881-110.372-141.025c-23.302,39.69-35.951,88.914-35.951,141.025s12.648,101.344,35.951,141.025
	C445.171,378.438,485.406,342.337,499.276,293.837L499.276,293.837z"/>
<path style="fill:#3A484A;" d="M62.031,323.873C30.386,343.743,7.5,328.257,7.5,255.999s22.886-87.744,54.531-67.874V323.873z"/>
<path style="fill:#E0712F;" d="M100.115,223.71v64.58c-13.422,15.991-26.358,28.213-38.084,35.584
	c-9.355-10.654-14.85-32.439-14.85-67.874s5.496-57.219,14.85-67.874C73.757,195.496,86.693,207.718,100.115,223.71z"/>
<g>
	<path style="fill:#3A484A;" d="M203.146,125.946C155.41,65.879,220.06,39.561,285.92,62.407L203.146,125.946z"/>
	<path style="fill:#3A484A;" d="M203.146,386.052c-47.736,60.067,16.914,86.385,82.774,63.539L203.146,386.052z"/>
</g>
<path style="fill:#E0712F;" d="M349.389,103.625l-146.243,22.32c0,0,18.62-49.135,82.774-63.539
	C308.408,70.214,331.046,83.745,349.389,103.625z"/>
<path style="fill:#FA9F6A;" d="M349.389,408.373l-146.243-22.32c0,0,18.62,49.134,82.774,63.539
	C308.408,441.784,331.046,428.253,349.389,408.373z"/>
<path style="fill:#EFEDEE;" d="M203.155,125.946h-0.01c-0.003,0.006-0.005,0.012-0.007,0.018l-31.625,33.148l-23.147,106.672
	l23.147,86.44l31.632,33.828c19.771,9.702,40.375,16.448,61.158,20.475V105.471C243.531,109.498,222.916,116.244,203.155,125.946z"
	/>
<path style="fill:#D2D2D2;" d="M263.166,386.236h-0.011c-22.093-4.281-43.997-11.453-65.015-21.767
	c-9.386-4.597-18.59-9.819-27.548-15.685l0.921,3.44l31.632,33.828l0,0c4.943,2.426,9.938,4.666,14.974,6.726
	c15.11,6.179,30.597,10.729,46.184,13.749v-20.083C263.924,386.373,263.545,386.31,263.166,386.236z"/>
<g>
	<path style="fill:#FA9F6A;" d="M313.537,255.999c0,55.245,12.559,108.04,35.851,152.374c-27.409,4.147-56.386,3.74-85.075-1.845
		h-0.01c-27.052-41.179-41.853-94.173-41.853-150.529s14.801-109.34,41.853-150.529h0.01c28.689-5.585,57.666-5.992,85.075-1.845
		C326.106,147.96,313.537,200.755,313.537,255.999z"/>
	<path style="fill:#FA9F6A;" d="M177.809,255.999c0,46.238,8.799,90.769,25.336,130.053
		c-43.53-21.318-82.933-56.892-110.729-109.171c-6.924-13.035-6.924-28.729,0-41.764c27.796-52.279,67.189-87.853,110.729-109.171
		C186.619,165.23,177.809,209.751,177.809,255.999z"/>
</g>
<g>
	<path style="fill:#E0712F;" d="M400.252,394.689c20.419-8.145,39.719-19.469,56.148-34.134c0.074-0.066,0.151-0.131,0.225-0.198
		c7.518-6.735,14.423-14.173,20.48-22.25c0.061-0.081,0.12-0.163,0.181-0.244c7.694-10.298,13.964-21.543,18.536-33.652
		c-20.886,32.643-54.638,57.351-94.654,71.922c-5.077,1.853-10.263,3.527-15.528,5.047c2.65,5.43,5.479,10.718,8.489,15.844
		C396.181,396.277,398.222,395.498,400.252,394.689z"/>
	<path style="fill:#E0712F;" d="M263.155,386.236c-4.019-0.779-8.032-1.656-12.034-2.628c4.004,7.976,8.397,15.636,13.192,22.919
		c24.563,4.782,49.846,5.872,74.727,3.185c3.471-0.375,6.922-0.822,10.348-1.34c-3.167-6.028-6.129-12.219-8.895-18.545
		C315.306,392.341,289.127,391.29,263.155,386.236z"/>
	<path style="fill:#E0712F;" d="M203.145,386.052c-3.211-7.627-6.12-15.456-8.74-23.452
		c-41.229-21.033-78.76-54.288-106.893-101.619c0.055,0.49,0.128,0.979,0.199,1.468c0.734,5.038,2.316,9.934,4.705,14.432
		c7.504,14.113,16.184,27.614,26.041,40.201C142.704,348.043,171.859,370.73,203.145,386.052z"/>
</g>
<path d="M463.815,250.473c-6.726-4.202-15.074-5.252-22.908-2.882c-7.832,2.372-14.196,7.877-17.461,15.105
	c-1.705,3.775-0.027,8.217,3.749,9.924c3.741,1.689,8.228-0.001,9.921-3.748c1.483-3.284,4.45-5.807,8.139-6.924
	c3.689-1.118,7.557-0.663,10.613,1.246c3.513,2.196,8.14,1.126,10.334-2.386S467.328,252.669,463.815,250.473z"/>
<path d="M512,255.999c0-33.825-11.431-65.617-33.057-91.939c-20.077-24.438-48.513-43.845-82.243-56.131
	c-13.844-5.053-28.508-8.838-43.615-11.295c-17.604-18.438-39.913-32.704-64.708-41.312c-16.184-5.614-32.918-8.581-48.394-8.581
	c-28.386,0-49.293,9.585-57.358,26.297c-4.872,10.096-6.808,26.714,9.252,50.267c-37.503,20.1-69.397,49.802-93.53,86.98
	c-11.455-12.632-22.303-22.209-32.328-28.511c-9.617-6.039-18.594-9.101-26.683-9.101c-9.094,0-21.68,3.866-29.999,22.286
	C3.142,208.679,0,229.216,0,255.999c0,26.78,3.142,47.316,9.339,61.037c8.318,18.419,20.904,22.288,30,22.289
	c8.086,0,17.063-3.062,26.683-9.103c10.023-6.3,20.871-15.877,32.326-28.509c24.13,37.173,56.024,66.875,93.53,86.98
	c-16.058,23.551-14.122,40.169-9.25,50.264c8.066,16.713,28.971,26.3,57.362,26.301c15.471,0,32.205-2.968,48.391-8.583
	c24.793-8.608,47.1-22.873,64.704-41.311c15.109-2.458,29.774-6.243,43.626-11.3c33.72-12.282,62.156-31.689,82.233-56.127
	C500.128,322.153,512,289.379,512,255.999z M274.777,96.091c-17.777,2.612-35.64,7.136-52.609,13.497
	c-0.155,0.058-0.312,0.112-0.467,0.171c0.081-0.103,0.165-0.207,0.247-0.311c6.301-7.928,13.729-14.899,21.986-20.755
	c12.086-8.572,25.907-14.556,40.254-18.151c0.439-0.11,0.882-0.214,1.324-0.321c15.432,5.604,29.756,13.61,42.308,23.589
	c-17.063-1.043-34.19-0.365-51.22,2.018C275.991,95.914,275.384,96.001,274.777,96.091z M196.134,79.557
	c5.385-11.156,21.777-17.817,43.85-17.817c6.083,0,12.402,0.519,18.816,1.533c-31.519,13.523-48.615,35.025-56.679,48.307
	C194.189,98.838,192.111,87.894,196.134,79.557z M39.338,324.324C18.162,324.322,15,281.515,15,255.999
	c0-25.518,3.162-68.326,24.336-68.326c3.478,0,7.43,1.015,11.806,3.026c-0.047,0.084-0.089,0.175-0.136,0.26
	c-9.242,16.782-10.71,37.498-11.207,56.269c-0.212,7.991-0.172,16.499,0.275,24.674c0.002,0.037,0.003,0.075,0.005,0.112
	c0.877,16.661,2.725,34.164,10.927,49.024c0.046,0.084,0.089,0.176,0.136,0.26C46.767,323.31,42.816,324.324,39.338,324.324z
	 M90.184,288.341c-9.322,10.633-18.108,19.042-26.225,25.104c-0.053-0.099-0.275-0.517-0.333-0.63
	c-8.689-16.85-8.944-38.298-8.944-56.816c0-15.211,0.658-30.688,4.69-45.435c1.069-3.912,2.392-7.769,4.254-11.38
	c0.058-0.113,0.281-0.532,0.333-0.631c8.118,6.061,16.903,14.47,26.225,25.103c0.319,0.364-4.038,7.28-4.39,7.942
	c-8.116,15.279-8.116,33.522,0.001,48.803C86.148,281.068,90.487,287.995,90.184,288.341z M105.764,285.267
	c-2.335-3.914-4.584-7.881-6.724-11.905c-5.776-10.873-5.776-23.854-0.001-34.724c2.143-4.031,4.391-8.007,6.735-11.924
	c21.206-35.445,49.551-64.235,83.129-84.474c-12.566,36.496-18.593,75.19-18.593,113.759c0,16.525,1.136,33.179,3.377,49.5
	c0.563,4.103,4.339,6.981,8.45,6.41c4.006-0.556,6.961-4.436,6.41-8.45c-2.148-15.65-3.237-31.619-3.237-47.46
	c0-42.431,7.602-85.212,23.696-124.544c0.122-0.058,0.243-0.118,0.365-0.176c6.496-3.079,13.138-5.853,19.89-8.32
	c6.156-2.249,12.4-4.234,18.719-5.972c0.26-0.071,0.52-0.142,0.781-0.213c-0.101,0.183-0.197,0.369-0.297,0.552
	c-17.918,32.801-28.168,69.557-31.908,106.656c-1.072,10.636-1.606,21.326-1.606,32.016c0,38.51,6.82,77.195,21.325,112.934
	c3.571,8.798,7.609,17.442,12.197,25.758c0.097,0.177,0.19,0.356,0.287,0.533c-0.256-0.069-0.511-0.139-0.766-0.208
	c-13.261-3.635-26.205-8.409-38.631-14.297c-0.121-0.057-0.241-0.117-0.362-0.174c-0.503-0.239-1.164-2.873-1.417-3.514
	c-5.754-14.579-10.343-29.634-13.826-44.913c-0.92-4.038-4.938-6.569-8.979-5.646c-4.039,0.92-6.566,4.94-5.646,8.979
	c2.636,11.565,5.875,22.996,9.736,34.212c0.01,0.031,0.02,0.062,0.03,0.092C155.315,349.507,126.966,320.712,105.764,285.267z
	 M274.051,415.81c17.784,2.649,35.822,3.472,53.769,2.375c-12.552,9.98-26.876,17.987-42.309,23.591
	c-15.791-3.792-31.131-10.355-44.063-20.279c-7.209-5.532-13.832-11.817-19.492-18.937c-0.084-0.106-0.17-0.213-0.253-0.319
	c0.142,0.053,0.285,0.103,0.427,0.156C238.904,408.681,256.335,413.171,274.051,415.81z M239.984,450.258
	c-22.071-0.001-38.462-6.663-43.847-17.821c-4.023-8.337-1.944-19.279,5.985-32.019c8.064,13.282,25.16,34.783,56.677,48.306
	c-6.413,1.013-12.728,1.534-18.809,1.534C239.987,450.258,239.986,450.258,239.984,450.258z M353.573,400.088
	c-3.354-6.698-6.445-13.537-9.262-20.478c-15.874-39.108-23.275-81.475-23.275-123.611c0-24.674,2.573-49.087,7.647-72.562
	c0.875-4.048-1.697-8.04-5.745-8.915c-3.843-0.831-8.043,1.707-8.916,5.746c-5.299,24.512-7.985,49.992-7.985,75.73
	c0,50.032,10.188,100.353,31.616,145.679c0.095,0.2,0.189,0.4,0.284,0.6c-8.488,0.905-17.076,1.371-25.648,1.371
	c-13.491,0-43.233-3.598-43.435-3.917c-0.124-0.194-0.25-0.386-0.373-0.581c-20.195-31.995-31.838-69.092-36.35-106.516
	c-1.461-12.119-2.177-24.326-2.181-36.532c0-0.035,0-0.069,0-0.104c0-37.204,6.714-74.974,21.072-109.361
	c4.327-10.364,9.414-20.349,15.132-30.011c0.41-0.682,2.58-4.17,2.701-4.361c0.625-0.113,2.719-0.489,3.142-0.56
	c13.285-2.225,26.809-3.357,40.293-3.357c8.573,0,17.162,0.466,25.652,1.371c-4.178,8.723-14.586,36.104-16.067,40.849
	c-0.007,0.022-0.015,0.044-0.022,0.066c-1.229,3.907,1.009,8.181,4.903,9.406c3.952,1.246,8.163-0.952,9.405-4.903
	c4.001-12.714,8.834-25.186,14.513-37.246c0.944-2.006,1.913-3.999,2.905-5.982c10.146,1.781,20.055,4.207,29.597,7.247
	c-0.67,1.248-1.331,2.504-1.981,3.766c-21.075,40.878-30.517,87.264-30.517,133.077c0,47.286,10.022,95.011,32.499,136.842
	C373.632,395.881,363.723,398.307,353.573,400.088z M397.479,387.724c-0.192-0.348-1.154-2.114-1.44-2.651
	c-16.028-30.086-25.307-63.526-28.755-97.369c-1.073-10.531-1.607-21.12-1.607-31.706c0-35.058,5.762-70.679,18.582-103.379
	c3.808-9.714,8.194-19.199,13.219-28.345C459.931,149.102,497,197.958,497,255.999c0,7.822-0.696,15.47-2.013,22.922
	c-4.541-0.021-11.353-0.449-18.283-2.356c-3.991-1.099-8.123,1.246-9.221,5.241c-1.099,3.994,1.247,8.122,5.241,9.221
	c6.834,1.881,13.465,2.595,18.69,2.815C478.888,334.93,445.786,368.519,397.479,387.724z"/>
<g>
</g>
<g>
</g>
<g>
</g>
<g>
</g>
<g>
</g>
<g>
</g>
<g>
</g>
<g>
</g>
<g>
</g>
<g>
</g>
<g>
</g>
<g>
</g>
<g>
</g>
<g>
</g>
<g>
</g>
</svg>
