<svg id="Capa_1" enable-background="new 0 0 512 512" height="512" viewBox="0 0 512 512" width="512" xmlns="http://www.w3.org/2000/svg"><g><circle cx="385.871" cy="104.947" fill="#f9bd5f" r="24.396"/><path d="m381.476 104.947c0-9.909 5.929-18.431 14.413-22.25-3.052-1.374-6.453-2.145-10.018-2.145-13.473 0-24.396 10.922-24.396 24.396s10.922 24.396 24.396 24.396c3.565 0 6.958-.768 10.01-2.142-8.484-3.821-14.405-12.346-14.405-22.255z" fill="#f4ac4e"/><path d="m414.11 229.407-28.239-108.196-69.341 107.425 36.315 68.48z" fill="#f9bd5f"/><path d="m195.703 228.607-69.321-107.396-28.291 108.054 60.818 67.851z" fill="#f9bd5f"/><path d="m256.492 104.947-97.583 181.697-130.11-145.153 48.792 239.94 32.297 10.472h294.779l30.726-10.472 48.792-239.94-131.34 145.153z" fill="#ffe177"/><g><g><g><path d="m398.721 269.099 76.768-84.842 8.697-42.767-112.426 124.25c5.391 10.166 19.24 11.891 26.961 3.359z" fill="#ffd15b"/></g><g><path d="m67.602 184.78-38.803-43.29 48.792 239.941 32.297 10.472h30l-32.297-10.472z" fill="#ffd15b"/></g><g><path d="m200.098 265.812 71.299-132.758-14.905-28.107-86.342 160.768 2.977 3.321c7.677 8.565 21.528 6.91 26.971-3.224z" fill="#ffd15b"/></g></g></g><path d="m249.936 231.906-24.332 48.664c-1.032 2.064-1.032 4.493 0 6.556l24.332 48.664c2.701 5.403 10.411 5.403 13.113 0l24.332-48.664c1.032-2.064 1.032-4.493 0-6.556l-24.332-48.664c-2.702-5.403-10.412-5.403-13.113 0z" fill="#ff8086"/><path d="m245.604 287.127c-1.032-2.064-1.032-4.493 0-6.556l20.888-41.777-3.444-6.887c-2.701-5.403-10.411-5.403-13.113 0l-24.332 48.664c-1.032 2.064-1.032 4.493 0 6.556l24.332 48.664c2.701 5.403 10.411 5.403 13.113 0l3.444-6.887z" fill="#e5646e"/><path d="m168.173 348.904h-18.528c-3.866 0-7-3.134-7-7v-18.528c0-3.866 3.134-7 7-7h18.528c3.866 0 7 3.134 7 7v18.528c0 3.866-3.134 7-7 7z" fill="#8ac9fe"/><path d="m363.338 348.904h-18.528c-3.866 0-7-3.134-7-7v-18.528c0-3.866 3.134-7 7-7h18.528c3.866 0 7 3.134 7 7v18.528c0 3.866-3.134 7-7 7z" fill="#8ac9fe"/><path d="m354.075 381.499.025-.068h-.041z" fill="#606060"/><circle cx="24.396" cy="129.137" fill="#f9bd5f" r="24.396"/><path d="m20 129.137c0-9.909 5.925-18.433 14.41-22.252-3.053-1.374-6.449-2.143-10.014-2.143-13.474 0-24.396 10.922-24.396 24.395s10.922 24.396 24.396 24.396c3.565 0 6.961-.769 10.014-2.143-8.485-3.82-14.41-12.344-14.41-22.253z" fill="#f4ac4e"/><circle cx="487.604" cy="129.137" fill="#f9bd5f" r="24.396"/><path d="m483.209 129.137c0-9.909 5.922-18.434 14.407-22.253-3.053-1.374-6.447-2.142-10.011-2.142-13.474 0-24.396 10.922-24.396 24.396 0 13.473 10.922 24.396 24.396 24.396 3.565 0 6.959-.768 10.011-2.142-8.485-3.821-14.407-12.346-14.407-22.255z" fill="#f4ac4e"/><circle cx="256.492" cy="89.976" fill="#f9bd5f" r="24.396"/><path d="m252.096 89.976c0-9.909 5.921-18.435 14.406-22.254-3.052-1.374-6.446-2.142-10.01-2.142-13.473 0-24.396 10.922-24.396 24.396 0 13.473 10.922 24.396 24.396 24.396 3.565 0 6.958-.768 10.01-2.142-8.485-3.82-14.406-12.345-14.406-22.254z" fill="#f4ac4e"/><circle cx="122.599" cy="104.742" fill="#f9bd5f" r="24.396"/><path d="m118.204 104.742c0-9.909 5.922-18.434 14.407-22.253-3.053-1.374-6.447-2.142-10.012-2.142-13.473 0-24.396 10.922-24.396 24.396s10.922 24.396 24.396 24.396c3.565 0 6.959-.768 10.012-2.142-8.485-3.821-14.407-12.347-14.407-22.255z" fill="#f4ac4e"/><path d="m435.391 381.359v57.731c0 4.042-3.278 7.33-7.33 7.33h-343.138c-4.052 0-7.33-3.288-7.33-7.33v-57.731z" fill="#f9bd5f"/><path d="m107.593 439.089v-57.731h-30v57.731c0 4.042 3.278 7.33 7.33 7.33h30c-4.052.001-7.33-3.288-7.33-7.33z" fill="#f4ac4e"/><g><g><path d="m77.593 406.072h357.798v15.708h-357.798z" fill="#ffe177"/></g></g><path d="m107.593 421.748v-15.702l-30-.005v15.707l357.798.063v-.005z" fill="#ffd15b"/></g></svg>