<svg id="Capa_1" enable-background="new 0 0 512 512" height="512" viewBox="0 0 512 512" width="512" xmlns="http://www.w3.org/2000/svg"><g><g><circle cx="137.195" cy="365.442" fill="#d3e4e4" r="82.26"/></g><g><circle cx="374.805" cy="365.442" fill="#d3e4e4" r="82.26"/></g><g><path d="m54.93 365.443c0 7.42.98 14.61 2.83 21.45h-25.57c-12.255 0-22.19-9.935-22.19-22.19 0-12.255 9.935-22.19 22.19-22.19h25.98c-2.11 7.28-3.24 14.97-3.24 22.93z" fill="#ff7e96"/></g><g><path d="m12.003 355.478 43.769-219.011c6.435-32.2 29.731-58.807 61.175-68.27 8.466-2.548 17.381-3.898 26.512-3.898 12.359 0 22.377 10.019 22.377 22.377 0 12.359-10.019 22.377-22.377 22.377h-19.634c-36.525 0-58.918 21.572-73.591 55.02z" fill="#ff7e96"/></g><g><path d="m502 364.703c0 12.255-9.935 22.19-22.19 22.19h-25.57c1.85-6.84 2.83-14.03 2.83-21.45 0-7.96-1.13-15.65-3.24-22.93h25.98c12.255 0 22.19 9.935 22.19 22.19z" fill="#ff7e96"/></g><g><path d="m500.323 356.226-44.091-219.805c-6.455-32.182-29.749-58.766-61.179-68.226-8.466-2.548-17.381-3.898-26.512-3.898-12.359 0-22.377 10.019-22.377 22.377 0 12.359 10.019 22.377 22.377 22.377h19.634c36.525 0 59.05 22.269 73.723 55.717z" fill="#ff7e96"/></g><g><path d="m509.965 353.448-43.928-218.994c-7.288-36.327-33.383-65.385-68.102-75.834-9.529-2.868-19.419-4.322-29.395-4.322-17.854 0-32.378 14.524-32.378 32.377s14.524 32.377 32.378 32.377h19.634c28.883 0 49.285 15.502 64.134 48.76l33.158 165.208c-1.838-.327-3.726-.508-5.657-.508h-18.823c-13.287-34.659-46.904-59.332-86.181-59.332-38.8 0-72.078 24.076-85.69 58.072-8.445-8.56-20.169-13.877-33.114-13.877-12.966 0-24.706 5.335-33.154 13.918-7.602-18.992-21.419-35.31-39.664-45.823-4.785-2.758-10.9-1.113-13.657 3.672s-1.113 10.9 3.672 13.657c22.365 12.886 36.258 36.889 36.258 62.642 0 39.844-32.416 72.26-72.26 72.26-39.331 0-72.261-32.936-72.261-72.26 0-25.13 13.316-48.752 34.796-61.805 4.72-2.868 6.221-9.019 3.353-13.739s-9.02-6.219-13.739-3.353c-17.974 10.922-31.257 27.11-38.411 45.968h-18.744c-1.874 0-3.708.17-5.496.479l33.167-165.961c14.643-32.725 34.992-47.977 63.964-47.977h19.634c17.853 0 32.377-14.524 32.377-32.377s-14.524-32.377-32.377-32.377c-9.975 0-19.864 1.454-29.394 4.322-34.74 10.456-60.834 39.534-68.1 75.886l-5.394 26.989c-.055.205-.103.411-.144.619l-38.036 190.431c-1.537 3.754-2.391 7.857-2.391 12.157 0 17.75 14.44 32.19 32.19 32.19h18.268c12.888 35.434 46.904 60.809 86.737 60.809 50.873 0 92.26-41.388 92.26-92.26 0-.381-.014-.761-.019-1.141.005-.127.019-.252.019-.38 0-14.637 11.908-26.544 26.544-26.544s26.544 11.908 26.544 26.544c0 .103.012.203.015.306-.005.405-.015.809-.015 1.216 0 50.873 41.388 92.26 92.261 92.26 39.833 0 73.849-25.375 86.737-60.809h18.267c17.75 0 32.19-14.44 32.19-32.19.002-3.959-.72-7.75-2.033-11.256zm-121.79-254.395h-19.634c-6.825 0-12.378-5.553-12.378-12.377s5.553-12.377 12.378-12.377c8.021 0 15.972 1.169 23.631 3.474 19.953 6.005 36.339 19.786 46.102 37.926-14.171-11.073-30.906-16.646-50.099-16.646zm-268.346-21.282c7.659-2.305 15.609-3.474 23.63-3.474 6.825 0 12.377 5.552 12.377 12.377s-5.553 12.377-12.377 12.377h-19.634c-19.046 0-35.769 5.378-49.735 15.988 9.798-17.814 26.025-31.334 45.739-37.268zm-74.193 299.122h-13.446c-6.722 0-12.19-5.468-12.19-12.19s5.468-12.19 12.19-12.19h13.642c-1.127 8.064-1.198 16.299-.196 24.38zm329.169 60.809c-39.845 0-72.261-32.416-72.261-72.26 0-39.845 32.416-72.261 72.261-72.261 39.328 0 72.261 32.938 72.261 72.261-.001 39.325-32.93 72.26-72.261 72.26zm105.005-60.809h-13.445c1.003-8.076.937-16.322-.195-24.38h13.641c6.722 0 12.19 5.468 12.19 12.19s-5.47 12.19-12.191 12.19z"/><path d="m145.51 277.63c-2.988-4.565-9.355-5.748-13.86-2.76-4.541 3.012-5.785 9.332-2.77 13.86 3.016 4.53 9.343 5.797 13.87 2.77 4.53-3.029 5.779-9.34 2.76-13.87z"/></g></g></svg>