<svg id="Capa_1" enable-background="new 0 0 426.703 426.703" height="512" viewBox="0 0 426.703 426.703" width="512" xmlns="http://www.w3.org/2000/svg"><g><path d="m426.703 178.06v247.842h-426.615l155.216-135.479-155.304-112.363 213.352-177.259z" fill="#eab54e"/><path d="m39.09 42.67h346.296v268.823h-346.296z" fill="#eeefee"/><g fill="#dbd8dd"><path d="m66.54 69.985h148.576v9.039h-148.576z"/><path d="m66.54 115.231h182.801v9.039h-182.801z"/><path d="m278.679 115.231h79.263v9.039h-79.263z"/><path d="m66.54 160.472h68.793v9.039h-68.793z"/><path d="m156.002 160.472h201.94v9.039h-201.94z"/><path d="m66.54 205.718h144.132v9.039h-144.132z"/><path d="m236.674 205.718h121.267v9.039h-121.267z"/><path d="m357.941 250.964v9.039h-291.401v-9.039"/></g><path d="m271.399 290.423 155.216 135.479h.088v-247.842z" fill="#f6c863"/><path d="m155.304 290.423-155.216 135.479h-.088v-247.842z" fill="#f6c863"/><path d="m426.615 425.902h-426.527l155.216-135.479h116.095z" fill="#eab54e"/></g></svg>