<svg id="Capa_1" enable-background="new 0 0 510.141 510.141" height="512" viewBox="0 0 510.141 510.141" width="512" xmlns="http://www.w3.org/2000/svg"><g><g><g id="XMLID_32_"><g><circle cx="255.07" cy="255.07" fill="#fef0ae" r="247.57"/></g></g><path d="m155.87 255.07c0-110.884 72.914-204.738 173.399-236.259-23.421-7.347-48.353-11.311-74.199-11.311-136.73 0-247.57 110.84-247.57 247.57s110.84 247.57 247.57 247.57c25.846 0 50.785-3.966 74.207-11.314-100.485-31.52-173.407-125.371-173.407-236.256z" fill="#fee97d"/><g id="XMLID_222_"><g><path d="m502.59 259.21h.01c-.58 35.83-8.78 69.81-23.04 100.39l-.02-.01c-19.11-7.74-32.59-26.46-32.59-48.35 0-28.8 23.35-52.15 52.15-52.15 1.17 0 2.33.05 3.49.12z" fill="#fee97d"/><path d="m255.07 463.83c21.57 0 39.7 14.77 44.8 34.76-14.53 2.66-29.5 4.05-44.8 4.05s-30.27-1.39-44.8-4.05c5.1-19.99 23.23-34.76 44.8-34.76z" fill="#fedf30"/><g fill="#fee97d"><path d="m314.82 353.39c16.67 0 30.19 13.52 30.19 30.19 0 16.68-13.52 30.19-30.19 30.19-16.68 0-30.2-13.51-30.2-30.19 0-16.67 13.52-30.19 30.2-30.19z"/><circle cx="369.56" cy="304.23" r="21.35"/><circle cx="323.58" cy="189.96" r="57.45"/></g><circle cx="155.87" cy="303.77" fill="#fee45a" r="33.07"/><path d="m155.87 336.84c4.585 0 8.953-.935 12.923-2.623-6.789-20.134-11.059-41.427-12.435-63.505-.163-.002-.324-.012-.488-.012-18.27 0-33.07 14.81-33.07 33.07s14.8 33.07 33.07 33.07z" fill="#fedf30"/><path d="m94.49 199.07c11.15 0 20.19 9.04 20.19 20.18 0 11.15-9.04 20.19-20.19 20.19s-20.18-9.04-20.18-20.19c0-11.14 9.03-20.18 20.18-20.18z" fill="#fedf30"/><path d="m180.82 18.84c2.24 8.27 3.45 16.97 3.45 25.95 0 54.63-44.29 98.92-98.93 98.92-16.4 0-31.87-4-45.49-11.06h-.01c30.65-53.78 80.88-94.95 140.98-113.82z" fill="#fedf30"/></g></g></g><g><path d="m436.052 75.342c-2.919-2.938-7.667-2.955-10.607-.037-2.939 2.919-2.955 7.668-.037 10.607 44.182 44.488 68.843 103.263 69.691 165.823-31.034 2.068-55.654 27.959-55.654 59.507 0 21.751 11.616 41.339 30.155 51.844-11.377 22.54-26.403 43.367-44.775 61.739-33.353 33.353-74.797 55.667-119.901 65.144-8.085-20.116-27.678-33.643-49.855-33.643-22.175 0-41.76 13.53-49.844 33.645-45.108-9.477-86.555-31.791-119.911-65.146-45.342-45.343-70.314-105.63-70.314-169.755 0-39.937 9.69-78.383 27.951-112.659 13.303 5.769 27.816 8.802 42.394 8.802 12.585 0 24.907-2.177 36.623-6.471 3.889-1.425 5.886-5.734 4.461-9.623s-5.734-5.887-9.623-4.461c-10.057 3.686-20.642 5.555-31.46 5.555-12.152 0-23.845-2.315-34.867-6.884 9.745-15.79 21.387-30.564 34.837-44.014 25.829-25.829 56.513-45.037 89.987-56.795.967 5.355 1.463 10.801 1.463 16.272 0 27.729-12.385 53.651-33.979 71.116-3.221 2.605-3.72 7.328-1.115 10.548 1.482 1.833 3.65 2.784 5.836 2.784 1.657 0 3.324-.546 4.712-1.669 25.132-20.328 39.546-50.5 39.546-82.779 0-7.009-.69-13.987-2.05-20.827 21.001-5.904 42.941-8.965 65.354-8.965 53.826 0 104.7 17.416 147.122 50.364 3.272 2.541 7.984 1.949 10.524-1.323 2.541-3.271 1.949-7.983-1.323-10.524-45.078-35.011-99.134-53.517-156.323-53.517-68.132 0-132.185 26.532-180.362 74.708-48.176 48.177-74.708 112.23-74.708 180.362s26.532 132.186 74.708 180.362c48.176 48.177 112.23 74.708 180.362 74.708s132.186-26.532 180.362-74.708c48.177-48.176 74.708-112.23 74.708-180.362.001-67.791-26.311-131.619-74.088-179.728zm-215.608 417.326c6.458-12.878 19.732-21.341 34.626-21.341 14.895 0 28.173 8.461 34.632 21.34-11.372 1.633-22.937 2.474-34.632 2.474-11.693 0-23.256-.84-34.626-2.473zm234.002-181.426c0-23.192 17.773-42.304 40.412-44.449-1.376 28.818-7.833 56.702-18.915 82.633-13.251-8.002-21.497-22.327-21.497-38.184z"/><path d="m323.68 239.906c-.106-.003-.213-.007-.32-.006-4.119 0-7.472 3.326-7.499 7.451-.026 4.108 3.255 7.466 7.35 7.547.125.004.249.007.375.007 35.813 0 64.95-29.136 64.95-64.95s-29.136-64.95-64.95-64.95-64.95 29.136-64.95 64.95c0 22.245 11.207 42.7 29.979 54.72 3.485 2.232 8.125 1.217 10.36-2.272 2.233-3.489 1.216-8.127-2.272-10.361-14.444-9.248-23.067-24.981-23.067-42.087 0-27.542 22.407-49.95 49.95-49.95s49.95 22.407 49.95 49.95c-.002 27.511-22.358 49.899-49.856 49.951z"/><path d="m155.868 344.338c22.37 0 40.568-18.199 40.568-40.568s-18.199-40.568-40.568-40.568-40.568 18.199-40.568 40.568 18.198 40.568 40.568 40.568zm0-66.136c14.099 0 25.568 11.47 25.568 25.568s-11.47 25.568-25.568 25.568-25.568-11.47-25.568-25.568 11.469-25.568 25.568-25.568z"/><path d="m94.491 191.57c-15.265 0-27.685 12.419-27.685 27.685s12.419 27.685 27.685 27.685 27.685-12.419 27.685-27.685-12.42-27.685-27.685-27.685zm0 40.369c-6.994 0-12.685-5.69-12.685-12.685s5.69-12.685 12.685-12.685 12.685 5.69 12.685 12.685-5.691 12.685-12.685 12.685z"/><path d="m314.815 421.274c20.783 0 37.691-16.908 37.691-37.691s-16.908-37.691-37.691-37.691-37.691 16.908-37.691 37.691 16.908 37.691 37.691 37.691zm0-60.382c12.512 0 22.691 10.179 22.691 22.691s-10.179 22.691-22.691 22.691-22.691-10.179-22.691-22.691 10.179-22.691 22.691-22.691z"/><path d="m398.412 304.231c0-15.907-12.941-28.849-28.848-28.849s-28.849 12.941-28.849 28.849 12.941 28.849 28.849 28.849c15.907 0 28.848-12.942 28.848-28.849zm-42.697 0c0-7.636 6.212-13.849 13.849-13.849 7.636 0 13.848 6.212 13.848 13.849s-6.212 13.849-13.848 13.849-13.849-6.213-13.849-13.849z"/></g></g></svg>