<?xml version="1.0" encoding="iso-8859-1"?>
<!-- Generator: Adobe Illustrator 19.0.0, SVG Export Plug-In . SVG Version: 6.00 Build 0)  -->
<svg version="1.1" id="Capa_1" xmlns="http://www.w3.org/2000/svg" xmlns:xlink="http://www.w3.org/1999/xlink" x="0px" y="0px"
	 viewBox="0 0 511.84 511.84" style="enable-background:new 0 0 511.84 511.84;" xml:space="preserve">
<g>
	<path style="fill:#415A6B;" d="M241.627,275.157v189.557c0,10.229-8.331,18.539-18.539,18.539c-10.229,0-18.56-8.309-18.56-18.539
		v-11.477c0-7.893-6.379-14.293-14.272-14.293c-7.893,0-14.293,6.4-14.293,14.293v11.477c0,25.984,21.12,47.125,47.125,47.125
		c25.984,0,47.104-21.141,47.104-47.125V275.157H241.627z"/>
	<path style="fill:#415A6B;" d="M270.192,124.32V96.256c0-7.893-6.379-14.283-14.272-14.283c-7.893,0-14.293,6.389-14.293,14.283
		v28.064H270.192z"/>
</g>
<path style="fill:#F3705A;" d="M113.584,300.245c29.12,0,42.88,5.504,60.672,19.893c19.189-14.4,48.683-23.605,81.664-23.605
	c32.96,0,62.475,9.205,81.643,23.605c17.792-14.4,31.541-19.893,60.672-19.893c34.293,0,64.021,11.413,78.912,28.107
	C468.005,200.085,372.571,99.125,255.92,99.125S43.813,200.085,34.693,328.352C49.563,311.669,79.291,300.245,113.584,300.245"/>
<path style="fill:#F05540;" d="M255.92,99.136L255.92,99.136c-36.789,0-70.955,89.28-81.333,220.779
	c19.168-14.251,48.544-23.371,81.333-23.371s62.144,9.12,81.312,23.371C326.853,188.416,292.709,99.136,255.92,99.136"/>
<path style="fill:#8AD7F8;" d="M114.213,135.509c0,14.613-11.829,26.464-26.453,26.464c-14.603,0-26.453-11.851-26.453-26.464
	c0-14.603,26.453-48.843,26.453-48.843S114.213,120.907,114.213,135.509"/>
<path style="fill:#FFFFFF;" d="M87.749,153.536c-9.941,0-18.016-8.085-18.016-18.016c0-1.557,1.269-2.827,2.816-2.827
	s2.816,1.269,2.816,2.827c0,6.837,5.557,12.384,12.395,12.384c1.547,0,2.816,1.269,2.816,2.827S89.296,153.536,87.749,153.536"/>
<path style="fill:#8AD7F8;" d="M282.373,48.853c0,14.613-11.851,26.464-26.453,26.464c-14.624,0-26.475-11.851-26.475-26.464
	S255.92,0,255.92,0S282.373,34.24,282.373,48.853"/>
<path style="fill:#FFFFFF;" d="M255.92,66.88c-9.941,0-18.037-8.085-18.037-18.027c0-1.547,1.269-2.816,2.816-2.816
	c1.557,0,2.837,1.269,2.837,2.816c0,6.848,5.547,12.395,12.395,12.395c1.547,0,2.816,1.269,2.816,2.816
	C258.736,65.621,257.467,66.88,255.92,66.88"/>
<path style="fill:#8AD7F8;" d="M437.317,93.163c0,14.613-11.851,26.464-26.475,26.464c-14.603,0-26.453-11.851-26.453-26.464
	s26.453-48.853,26.453-48.853S437.317,78.549,437.317,93.163"/>
<path style="fill:#FFFFFF;" d="M410.832,111.2c-9.941,0-18.016-8.085-18.016-18.027c0-1.547,1.269-2.816,2.816-2.816
	s2.816,1.269,2.816,2.816c0,6.848,5.557,12.395,12.395,12.395c1.547,0,2.816,1.269,2.816,2.816
	C413.648,109.931,412.379,111.2,410.832,111.2"/>
<path style="fill:#8AD7F8;" d="M175.963,237.429c0,14.613-11.851,26.464-26.453,26.464c-14.624,0-26.453-11.851-26.453-26.464
	c0-14.613,26.453-48.853,26.453-48.853S175.963,222.805,175.963,237.429"/>
<path style="fill:#FFFFFF;" d="M149.499,255.456c-9.941,0-18.037-8.085-18.037-18.027c0-1.547,1.269-2.816,2.837-2.816
	c1.547,0,2.816,1.269,2.816,2.816c0,6.848,5.547,12.395,12.395,12.395c1.547,0,2.816,1.269,2.816,2.827
	C152.325,254.208,151.045,255.456,149.499,255.456"/>
<path style="fill:#8AD7F8;" d="M373.957,202.88c0,14.613-11.851,26.464-26.453,26.464c-14.624,0-26.475-11.851-26.475-26.464
	s26.475-48.853,26.475-48.853S373.957,188.267,373.957,202.88"/>
<path style="fill:#FFFFFF;" d="M347.504,220.917c-9.941,0-18.037-8.085-18.037-18.027c0-1.547,1.269-2.816,2.816-2.816
	c1.557,0,2.837,1.269,2.837,2.816c0,6.848,5.547,12.395,12.395,12.395c1.547,0,2.816,1.269,2.816,2.827
	S349.04,220.917,347.504,220.917"/>
<g>
</g>
<g>
</g>
<g>
</g>
<g>
</g>
<g>
</g>
<g>
</g>
<g>
</g>
<g>
</g>
<g>
</g>
<g>
</g>
<g>
</g>
<g>
</g>
<g>
</g>
<g>
</g>
<g>
</g>
</svg>
