<svg id="Layer_1" enable-background="new 0 0 128 128" height="512" viewBox="0 0 128 128" width="512" xmlns="http://www.w3.org/2000/svg"><path d="m99.324 110.352c-.378-1.099-1.031-2.023-1.851-2.733-.044-.166-.087-.331-.144-.495-.637-1.852-1.958-3.346-3.719-4.206-1.184-.578-2.472-.815-3.753-.719-.123-2.746-.648-5.661-1.572-8.713-.156-.513-1.119-3.254-1.318-3.752-.406-1.015-.852-2.036-1.329-3.032-.232-.485-1.354-2.644-1.616-3.112-1.407-2.502-3.001-4.851-4.678-6.908 3.363-2.341 6.077-5.379 7.884-8.861h4.689c.553 0 1-.448 1-1s-.447-1-1-1h-3.767c.452-1.131.808-2.302 1.065-3.504h2.704c.553 0 1-.448 1-1s-.447-1-1-1h-2.379c.093-.805.149-1.619.149-2.445 0-.358-.012-.71-.03-1.059h2.26c.553 0 1-.448 1-1s-.447-1-1-1h-2.472c-.788-4.961-3.538-8.968-8.094-11.728 3.144-4.787 5.913-11.307 7.323-17.295 3.679-15.627-3.63-19.129-6.942-19.908-3.268-.771-6.339.033-8.884 2.323-2.772 2.491-4.861 6.662-6.212 12.397-1.364 5.796-1.813 12.673-1.217 18.265-.823-.04-1.65-.058-2.477-.061-.116-.049-.244-.077-.378-.077-.001 0-.003 0-.005 0-.842.004-1.656.056-2.428.136.596-5.592.147-12.469-1.217-18.263-1.35-5.735-3.44-9.906-6.211-12.397-2.546-2.289-5.618-3.094-8.884-2.323-3.313.78-10.622 4.281-6.942 19.908 1.41 5.99 4.18 12.51 7.322 17.295-4.555 2.76-7.305 6.766-8.093 11.728h-2.779c-.552 0-1 .448-1 1s.448 1 1 1h2.567c-.018.349-.03.702-.03 1.059 0 .826.055 1.64.148 2.445h-2.684c-.552 0-1 .448-1 1s.448 1 1 1h3.012c.256 1.201.606 2.373 1.056 3.504h-4.068c-.552 0-1 .448-1 1s.448 1 1 1h4.993c1.724 3.326 4.275 6.247 7.43 8.542-7.07 8.54-14.042 24.112-9.211 35.574.683 1.622 1.7 3.34 3.196 4.976-1.275.23-2.722.729-3.855 1.779-1.332 1.235-1.972 2.961-1.901 5.131.017.523.447.939.97.939h10.167c.882.924 1.81 1.449 2.775 1.546.032.003.065.005.097.005.026 0 .054-.001.08-.003l9.657-.8c.741-.079 1.406-.374 1.93-.841.669.043 1.349.078 2.054.099.081.02.165.028.248.029.162-.002.95-.024.95-.024.71-.018 1.467-.037 2.236-.056.516.438 1.162.718 1.893.796l9.633.798c.027.002.054.003.081.003.032 0 .064-.001.098-.005.964-.097 1.892-.622 2.774-1.546h10.766c.524 0 .953-.416.97-.939.071-2.17-.568-3.896-1.901-5.131-.783-.726-1.717-1.187-2.639-1.48.186-.337.365-.681.536-1.034.372.17.754.306 1.143.41 1.651 1.904 4.35 2.723 6.879 1.853 3.321-1.144 5.089-4.766 3.945-8.09z" fill="#e6e7e8"/><path d="m92.529 103.557c-1.077-3.131-4.352-4.879-7.507-4.116.007 1.179-.058 2.342-.218 3.477-.104 1.793-.331 3.523-.748 5.057-.284 1.042-.63 2.036-1.029 2.973 1.589 1.039 3.621 1.365 5.555.699 3.323-1.144 5.091-4.766 3.947-8.09z" fill="#fff"/><path d="m95.441 106.469c-1.144-3.324-4.765-5.092-8.089-3.948-1.057.364-1.955.979-2.654 1.755-.128 1.305-.332 2.556-.643 3.698-.215.789-.475 1.539-.758 2.269.034.122.064.245.106.367 1.144 3.324 4.765 5.092 8.089 3.948 3.325-1.143 5.093-4.765 3.949-8.089z" fill="#fa759e"/><path d="m76.08 39.525c3.3-4.723 6.279-11.514 7.768-17.839 2.767-11.753-.656-17.432-6.22-18.742-5.564-1.309-11.161 2.246-13.928 13.999-1.459 6.195-1.838 13.431-1.057 19.081-1.224-.087-2.475-.132-3.749-.132s-2.524.045-3.749.132c.781-5.651.401-12.886-1.057-19.081-2.768-11.753-8.365-15.308-13.928-13.998-5.564 1.31-8.987 6.988-6.22 18.742 1.489 6.324 4.468 13.115 7.768 17.839-5.368 2.906-8.755 7.631-8.755 14.465 0 12.661 11.614 22.925 25.941 22.925s25.941-10.264 25.941-22.925c0-6.834-3.388-11.56-8.755-14.466z" fill="#fff"/><path d="m42.964 59.684c-1.096 0-1.984.606-1.984 1.353s.888 1.353 1.984 1.353 1.984-.606 1.984-1.353-.888-1.353-1.984-1.353z" fill="#ffd7e5"/><ellipse cx="75.253" cy="61.037" fill="#ffd7e5" rx="1.984" ry="1.353"/><path d="m48.995 18.231c-1.095-5.642-4.104-9.804-6.721-9.297-2.617.508-3.85 5.493-2.755 11.136 1.095 5.642 4.104 9.804 6.721 9.297 2.617-.508 3.85-5.493 2.755-11.136z" fill="#fa759e"/><path d="m75.499 8.935c-2.617-.508-5.626 3.654-6.721 9.297-1.095 5.642.139 10.628 2.755 11.136 2.617.508 5.626-3.654 6.721-9.297 1.096-5.643-.138-10.628-2.755-11.136z" fill="#fa759e"/><path d="m86.943 119.909c.139-4.253-2.796-5.562-5.081-5.942 1.104-1.72 2.017-3.737 2.631-5.992.417-1.534.644-3.263.748-5.057.585-4.139-.001-8.642-1.33-13.033l-4.18-9.701c-1.594-2.833-3.401-5.417-5.263-7.581-4.261 2.711-9.486 4.313-15.137 4.313-5.858 0-11.26-1.717-15.603-4.611-9.153 10.423-17.167 31.19-5.268 41.514-1.961-.015-7.139.475-6.956 6.09h10.598c.779.909 1.605 1.466 2.441 1.551l9.633-.798c.688-.074 1.259-.404 1.643-.876.868.062 1.756.11 2.682.134v.023c.159-.002.937-.023.937-.023.839-.021 1.74-.044 2.653-.067.383.434.926.739 1.58.809l9.633.798c.836-.084 1.662-.641 2.441-1.551z" fill="#fff"/><path d="m58.346 85.102c-4.404 0-7.974-3.296-7.974 2.914s3.57 11.245 7.974 11.245 7.974-5.034 7.974-11.245c0-6.21-3.57-2.914-7.974-2.914z" fill="#ffd7e5"/><g fill="#3a2c60"><path d="m93.475 103.232c-.64-1.86-1.966-3.36-3.734-4.223-1.18-.576-2.462-.804-3.737-.712-.125-2.743-.65-5.654-1.573-8.702-.16-.528-.716-.828-1.247-.667-.528.16-.827.718-.667 1.247 1.393 4.601 1.829 8.841 1.289 12.685-.109 1.878-.351 3.511-.715 4.852-.517 1.9-1.276 3.638-2.192 5.174-.461-.048-.874-.066-1.218-.067 1.735-6.313 2.129-14.538-.032-20.901-.178-.521-.744-.8-1.269-.625-.523.178-.803.746-.626 1.269 2.782 8.189.986 20.332-2.477 25.717-.829 1.289-1.688 2.057-2.432 2.177l-1.69-.14.432-3.004c.078-.547-.301-1.054-.848-1.132-.558-.076-1.054.302-1.133.847l-.45 3.124-1.735-.144.465-3.228c.078-.547-.301-1.054-.848-1.132-.555-.073-1.053.301-1.133.847l-.481 3.348-2.085-.173c-.424-.045-.785-.243-1.016-.556-.193-.262-.278-.585-.246-.922 4.351-7.733 5.9-14.128 4.733-19.545-.115-.54-.644-.882-1.188-.767-.54.116-.883.648-.767 1.188 1.066 4.954-.441 10.939-4.609 18.299-.053.094-.091.196-.111.302-.081.416-.073.827-.006 1.224l-1.157.029s-.434.012-.714.019c-.055-.011-.112-.017-.169-.019-.424-.011-.83-.036-1.244-.055.062-.389.07-.791-.009-1.197-.021-.106-.059-.208-.112-.302-4.168-7.359-5.676-13.345-4.609-18.299.116-.54-.227-1.072-.767-1.188-.541-.116-1.071.227-1.188.767-1.167 5.418.381 11.813 4.733 19.544.033.337-.053.661-.246.923-.231.313-.592.51-.992.553l-2.109.175-.482-3.348c-.079-.547-.587-.919-1.132-.847-.546.079-.926.585-.847 1.132l.465 3.228-1.736.144-.45-3.123c-.079-.546-.589-.921-1.132-.847-.546.079-.926.585-.847 1.132l.432 3.004-1.69.14c-.744-.12-1.604-.888-2.432-2.177-3.463-5.385-5.259-17.527-2.478-25.717.178-.523-.102-1.091-.625-1.269-.527-.178-1.092.103-1.269.625-1.984 5.843-1.812 13.254-.429 19.316-.989-1.182-1.809-2.488-2.422-3.943-4.537-10.764 2.247-25.595 9.023-33.683 4.368 2.712 9.676 4.31 15.398 4.31 5.503 0 10.624-1.476 14.893-4.001 1.657 2.005 3.243 4.285 4.636 6.76.27.481.879.652 1.361.381.481-.271.652-.88.381-1.362-1.406-2.501-3.008-4.816-4.686-6.87 3.41-2.373 6.16-5.458 7.967-9.002h4.472c.553 0 1-.448 1-1s-.447-1-1-1h-3.573c.443-1.132.792-2.302 1.04-3.504h2.533c.553 0 1-.448 1-1s-.447-1-1-1h-2.212c.084-.766.129-1.542.129-2.327 0-.397-.011-.79-.033-1.177h2.116c.553 0 1-.448 1-1s-.447-1-1-1h-2.343c-.811-4.909-3.55-8.877-8.064-11.62 3.137-4.786 5.9-11.296 7.31-17.278 3.685-15.653-3.643-19.162-6.964-19.944-3.274-.772-6.357.034-8.911 2.33-2.775 2.495-4.868 6.671-6.219 12.412-1.363 5.786-1.813 12.651-1.222 18.241-1.73-.083-3.494-.083-5.223 0 .591-5.589.141-12.453-1.222-18.241-1.352-5.741-3.444-9.917-6.22-12.412-2.553-2.296-5.636-3.102-8.91-2.33-3.322.782-10.649 4.291-6.964 19.944 1.408 5.982 4.172 12.493 7.31 17.278-4.514 2.743-7.253 6.711-8.065 11.62h-2.884c-.552 0-1 .448-1 1s.448 1 1 1h2.657c-.022.387-.033.779-.033 1.177 0 .785.046 1.561.129 2.327h-2.753c-.552 0-1 .448-1 1s.448 1 1 1h3.074c.248 1.202.597 2.372 1.04 3.504h-4.114c-.552 0-1 .448-1 1s.448 1 1 1h5.013c1.721 3.377 4.295 6.34 7.484 8.665-7.068 8.551-14.027 24.117-9.196 35.579.68 1.614 1.698 3.322 3.182 4.95-1.271.233-2.703.726-3.833 1.773-1.339 1.241-1.982 2.975-1.911 5.153.018.539.46.967 1 .967h10.155c.885.923 1.816 1.448 2.784 1.546.033.003.067.005.1.005.027 0 .055-.001.083-.003l9.657-.8c.742-.079 1.41-.372 1.938-.838.662.043 1.342.076 2.042.096.081.02.161.033.249.029.162-.001.953-.023.953-.023l2.227-.055c.519.437 1.166.716 1.898.795l9.633.798c.028.002.056.003.083.003.033 0 .066-.001.101-.005.968-.098 1.899-.623 2.783-1.546h10.755c.539 0 .981-.428.999-.967.071-2.179-.571-3.913-1.909-5.153-.784-.726-1.718-1.189-2.641-1.483.18-.324.352-.655.517-.993.946.436 1.98.681 3.044.681.793 0 1.6-.129 2.39-.401 1.86-.64 3.36-1.966 4.223-3.734.863-1.774.986-3.772.346-5.632zm-56.865-39.41h.492c.552 0 1-.448 1-1s-.448-1-1-1h-1.5c-.492-1.127-.885-2.297-1.161-3.504h2.66c.552 0 1-.448 1-1s-.448-1-1-1h-3.008c-.092-.765-.142-1.541-.142-2.327 0-.399.014-.791.038-1.177h3.113c.552 0 1-.448 1-1s-.448-1-1-1h-2.87c.826-4.501 3.49-7.994 7.951-10.409.25-.136.431-.372.497-.649.065-.277.01-.57-.153-.803-3.251-4.654-6.169-11.358-7.614-17.495-2.337-9.929-.393-16.158 5.476-17.54.66-.155 1.304-.232 1.931-.232 1.889 0 3.627.704 5.184 2.104 2.467 2.217 4.354 6.047 5.61 11.383 1.41 5.988 1.809 13.159 1.041 18.716-.041.298.055.6.261.82.205.22.494.329.801.314 2.412-.173 4.942-.173 7.355 0 .309.021.596-.094.801-.314.206-.22.302-.522.261-.82-.768-5.558-.369-12.729 1.041-18.716 1.256-5.335 3.144-9.166 5.61-11.383 2.073-1.864 4.47-2.495 7.114-1.871 5.868 1.382 7.813 7.611 5.476 17.54-1.445 6.137-4.362 12.841-7.613 17.495-.164.234-.22.526-.153.803.065.277.246.513.497.649 4.461 2.415 7.124 5.909 7.95 10.409h-3.411c-.553 0-1 .448-1 1s.447 1 1 1h3.654c.024.386.038.778.038 1.177 0 .786-.05 1.562-.142 2.327h-3.549c-.553 0-1 .448-1 1s.447 1 1 1h3.201c-.276 1.207-.669 2.377-1.161 3.504h-2.041c-.553 0-1 .448-1 1s.447 1 1 1h1.033c-4.107 7.165-12.55 12.094-22.283 12.094s-18.177-4.93-22.285-12.095zm-3.279 52.439c1.273-1.184 3.238-1.414 4.391-1.438.089.073.172.148.264.221.518 1.465 1.113 2.768 1.765 3.865h-7.654c.117-1.116.525-1.988 1.234-2.648zm52.145 2.648h-8.254c.683-1.148 1.301-2.525 1.835-4.072.646-.039 3.519-.12 5.179 1.418.713.662 1.122 1.535 1.24 2.654zm5.856-10.928c-.629 1.288-1.721 2.254-3.076 2.72-1.361.468-2.776.345-3.987-.216.281-.728.541-1.473.752-2.249.407-1.495.662-3.216.773-5.179.126-.894.194-1.816.22-2.755.164-.017.329-.04.492-.04 2.228 0 4.313 1.399 5.078 3.62.466 1.355.377 2.811-.252 4.099z"/><path d="m80.448 82.337c-.498.238-.709.835-.471 1.333.456.952.886 1.932 1.277 2.913.156.391.532.629.929.629.124 0 .249-.023.371-.072.513-.205.763-.787.558-1.3-.408-1.022-.856-2.043-1.33-3.034-.238-.498-.834-.709-1.334-.469z"/><path d="m50.794 54.026c0-1.221-.99-2.211-2.212-2.211s-2.211.99-2.211 2.211.99 2.212 2.211 2.212 2.212-.991 2.212-2.212z"/><path d="m70.601 56.237c1.221 0 2.211-.99 2.211-2.212s-.99-2.211-2.211-2.211-2.211.99-2.211 2.211.99 2.212 2.211 2.212z"/><path d="m64.107 68.311c3.197 0 5.798-2.601 5.798-5.798 0-.552-.447-1-1-1s-1 .448-1 1c0 2.094-1.704 3.798-3.798 3.798s-3.798-1.704-3.798-3.798c0-.098-.029-.187-.056-.277 1.612-.308 2.788-1.145 2.788-1.621 0-.589-1.79-.386-3.999-.386s-3.999-.203-3.999.386c0 .525 1.428 1.498 3.305 1.703-.013.065-.039.126-.039.195 0 2.094-1.704 3.798-3.798 3.798s-3.798-1.704-3.798-3.798c0-.552-.448-1-1-1s-1 .448-1 1c0 3.197 2.601 5.798 5.798 5.798 1.993 0 3.754-1.011 4.798-2.547 1.044 1.535 2.805 2.547 4.798 2.547z"/></g></svg>