<svg id="Layer_1" enable-background="new 0 0 497 497" height="512" viewBox="0 0 497 497" width="512" xmlns="http://www.w3.org/2000/svg"><path d="m248.526 340.278-11.891 16.504-74.387-53.844 216.585-302.912c41.158 29.65 50.481 87.054 20.821 128.205z" fill="#d0d0d9"/><path d="m378.833.026-17.058 23.856c20.433 30.919 20.834 72.5-2.122 104.349l-150.013 209.01 26.995 19.54 11.891-16.503 151.128-212.046c29.66-41.152 20.338-98.556-20.821-128.206z" fill="#bfbfc7"/><path d="m256.156 350.939 74.529-53.69-213.852-297.223c-41.158 29.65-50.481 87.054-20.821 128.205z" fill="#ededf8"/><path d="m116.833.026c-9.182 6.615-16.775 14.613-22.708 23.501l213.29 296.378-48.785 34.475 75.018-53.013z" fill="#dadae3"/><path d="m480.08 354.969c-28.505-39.549-83.281-48.966-123.3-21.594l-26.095-36.125-74.529 53.69 69.92 96.927 8.561 11.877c28.941 40.153 84.961 49.248 125.124 20.315s49.26-84.938 20.319-125.09zm-43.208 93.335c-22.512 16.217-53.911 11.119-70.133-11.387-16.221-22.506-11.122-53.896 11.39-70.114 22.512-16.217 53.911-11.119 70.133 11.386s11.122 53.898-11.39 70.115z" fill="#fe79a9"/><path d="m480.08 354.969c-21.714-30.127-58.67-42.745-92.737-34.959 20.511 4.682 39.47 16.552 52.737 34.959 8.827 12.247 14.096 25.969 16.044 39.947 2.219 8.544 2.121 17.461-.157 25.839-3.481 22.997-15.841 44.633-36.208 59.304-10.007 7.209-20.998 12.054-32.309 14.649 24.213 5.505 50.58 1.005 72.309-14.649 40.164-28.933 49.262-84.938 20.321-125.09z" fill="#f4549b"/><path d="m166.315 297.249-26.095 36.125c-40.019-27.372-94.795-17.955-123.3 21.594-28.941 40.152-19.843 96.157 20.32 125.09s96.183 19.838 125.124-20.315l8.561-11.877 69.92-96.927zm-36.054 139.668c-16.221 22.506-47.621 27.604-70.133 11.387s-27.611-47.608-11.39-70.114 47.621-27.604 70.133-11.386c22.512 16.217 27.611 47.607 11.39 70.113z" fill="#fe79a9"/><path d="m213.809 331.463-69.181 95.904-8.561 11.877c-26.286 36.469-74.908 47.311-113.701 27.316 4.356 4.939 9.305 9.487 14.874 13.499 40.163 28.933 96.183 19.838 125.124-20.315l8.561-11.877 69.92-96.927z" fill="#f4549b"/><circle cx="248.5" cy="263.42" fill="#797a84" r="15.328"/></svg>