<svg height="512pt" viewBox="0 -66 512.00015 512" width="512pt" xmlns="http://www.w3.org/2000/svg"><path d="m179.964844 89.984375-128.410156-37.164063c-22.148438-6.410156-44.3125 10.265626-44.140626 33.324219.46875 62.492188 19.421876 173.292969 139.4375 223.988281 172.1875 72.734376 283.515626-67.539062 283.515626-67.539062s-2.96875 51.953125 48.242187 75.703125c0 0-13.507813-37.746094-6.382813-90.09375 7.070313-51.917969 32.359376-93.226563 32.359376-93.226563s-40.035157 1.996094-66.011719 45.042969l-40.863281-17.582031s7.546874-35.160156-5.8125-41.09375c-13.355469-5.941406-32.273438 24.78125-32.273438 24.78125l-74.132812-25.542969s1.449218-53.265625 29.457031-90.144531c7.492187-9.863281-.089844-23.886719-12.4375-22.960938-39.859375 3-100.414063 18.511719-122.546875 82.507813zm0 0" fill="#cac0c9"/><path d="m430.363281 242.699219c-.109375 2.496093-1.679687 52.445312 48.246094 75.597656 0 0-5.378906-15.054687-7.558594-39.320313-25.570312-10.765624-36.472656-24.410156-40.6875-36.277343zm0 0" fill="#bbb0ba"/><path d="m430.183594 242.183594c-2.929688-8.617188-13.675782-11.472656-20.40625-5.347656-39.683594 36.132812-134.332032 100.617187-262.925782 46.296874-108.289062-45.742187-134.296874-140.410156-138.691406-204.382812-.496094 2.375-.765625 4.839844-.746094 7.394531.46875 62.492188 19.421876 173.292969 139.4375 223.988281 170.644532 72.082032 281.511719-65.039062 283.488282-67.503906-.054688-.148437-.105469-.296875-.15625-.445312zm0 0" fill="#bbb0ba"/><path d="m9.546875 120.664062c7.386719 63.015626 37.15625 147.164063 137.304687 189.46875 106.1875 44.855469 189.230469 8.699219 237.289063-25.609374-320.207031-21.683594-374.59375-163.859376-374.59375-163.859376zm0 0" fill="#ffe9c8"/><path d="m146.851562 283.132812c-79.277343-33.488281-114.453124-93.199218-129.335937-147.894531-5.851563-9.042969-7.96875-14.574219-7.96875-14.574219 7.386719 63.015626 37.15625 147.164063 137.304687 189.46875 106.1875 44.855469 189.230469 8.699219 237.289063-25.609374-13.761719-.929688-27.019531-2.089844-39.8125-3.445313-48.820313 23.324219-116.402344 36.300781-197.476563 2.054687zm0 0" fill="#ffdca7"/><path d="m178.609375 237.953125c14.945313 39.210937 56.902344 134.019531 113.128906 133.890625 35.976563-.078125 4.664063-67.890625 12.492188-133.246094" fill="#cac0c9"/><path d="m304.480469 292.015625c1.109375 27.324219-.671875 45.632813-20.425781 45.675781-30.824219.070313-62.109376-26.238281-86.546876-56.484375 20.949219 42.027344 53.921876 90.726563 94.230469 90.636719 26.003907-.058594 16.855469-35.503906 12.742188-79.828125zm0 0" fill="#bbb0ba"/><path d="m93.804688 133.390625c0 10.597656 6.683593 18.898437 15.214843 18.898437 8.535157 0 15.21875-8.300781 15.21875-18.898437s-6.683593-18.902344-15.21875-18.902344c-8.53125 0-15.214843 8.304688-15.214843 18.902344zm0 0"/><path d="m187.660156 204.214844c2.925782 2.851562 7.75 2.789062 10.601563-.136719 24.59375-25.242187 18.621093-55.453125 12.023437-67.898437-1.941406-3.660157-6.476562-5.054688-10.136718-3.117188-3.660157 1.941406-5.054688 6.480469-3.113282 10.136719.140625.265625 13.683594 26.605469-9.515625 50.414062-2.886719 2.964844-2.828125 7.714844.140625 10.601563zm0 0"/><path d="m223.015625 214.386719c1.953125 0 3.902344-.757813 5.371094-2.265625 24.597656-25.246094 18.621093-55.453125 12.023437-67.902344-1.9375-3.65625-6.476562-5.050781-10.136718-3.113281-3.65625 1.941406-5.050782 6.476562-3.113282 10.136719.140625.261718 13.6875 26.601562-9.511718 50.410156-2.890626 2.96875-2.828126 7.714844.136718 10.605468 1.457032 1.421876 3.347656 2.128907 5.230469 2.128907zm0 0"/><path d="m253.144531 222.429688c1.953125 0 3.902344-.757813 5.371094-2.265626 24.59375-25.246093 18.621094-55.453124 12.023437-67.902343-1.929687-3.644531-6.433593-5.027344-10.089843-3.113281-3.65625 1.914062-5.070313 6.4375-3.175781 10.101562.558593 1.085938 13.476562 26.871094-9.496094 50.449219-2.890625 2.964843-2.828125 7.710937.136718 10.601562 1.457032 1.421875 3.34375 2.128907 5.230469 2.128907zm0 0"/><path d="m90.058594 266.632812c-17.8125-15.359374-32.589844-33.554687-44.210938-54.339843 18.582032 9.476562 48.960938 19.847656 95.121094 22.15625.128906.007812.253906.007812.378906.007812 3.96875 0 7.28125-3.113281 7.484375-7.121093.207031-4.136719-2.980469-7.65625-7.113281-7.863282-72.710938-3.636718-102.933594-28.359375-108.25-33.269531-1.539062-3.871094-3.003906-7.804687-4.359375-11.820313-9.128906-27.105468-13.878906-56.800781-14.113281-88.261718-.0625-8.558594 3.820312-16.441406 10.664062-21.621094 6.882813-5.214844 15.589844-6.828125 23.878906-4.429688l128.367188 37.152344c3.832031 1.109375 7.863281-.980468 9.167969-4.753906 11.136719-32.191406 40.296875-71.757812 115.984375-77.449219 5.804687-.402343 9.441406 6.277344 5.902344 10.941407-7.28125 9.585937-13.476563 21.007812-18.40625 33.945312-1.472657 3.871094.46875 8.203125 4.335937 9.675781 3.871094 1.480469 8.203125-.464843 9.675781-4.332031 4.421875-11.605469 9.917969-21.769531 16.335938-30.21875 5.28125-6.953125 5.976562-16.023438 1.820312-23.667969-4.144531-7.617187-12.105468-11.964843-20.789062-11.2968748-26.96875 2.0273438-50.8125 8.4999998-70.875 19.2382818-26.019532 13.929687-44.714844 34.628906-55.648438 61.585937l-121.703125-35.226563c-12.882812-3.730468-26.40625-1.21875-37.101562 6.882813-10.652344 8.066406-16.7031252 20.347656-16.605469 33.6875.25 33.054687 5.261719 64.320313 14.902344 92.933594 13.371094 39.703125 35.363281 72.953125 65.363281 98.820312 3.09375 2.667969 7.90625 2.3125 10.574219-.78125 2.703125-3.136719 2.355468-7.871093-.78125-10.574219zm0 0"/><path d="m510.949219 131.167969c-1.417969-2.390625-4.039063-3.816407-6.820313-3.660157-1.722656.082032-40.84375 2.507813-68.492187 43.113282l-29.535157-12.707032c1.894532-12.386718 3.558594-36.839843-11.203124-43.398437-15.179688-6.75-31.136719 12.339844-38.359376 22.644531l-63.207031-21.78125c.429688-4.96875 1.347657-12.96875 3.28125-22.421875.832031-4.054687-1.78125-8.019531-5.839843-8.851562-4.058594-.824219-8.019532 1.785156-8.847657 5.84375-3.542969 17.304687-3.921875 29.921875-3.9375 30.449219-.089843 3.273437 1.957031 6.226562 5.050781 7.292968l74.109376 25.535156c3.316406 1.148438 6.984374-.167968 8.824218-3.15625 8.976563-14.574218 19.875-23.175781 22.839844-21.855468 3.910156 1.742187 4.664062 17.917968 1.523438 32.65625-.753907 3.503906 1.078124 7.046875 4.367187 8.460937l40.847656 17.578125c3.445313 1.480469 7.449219.191406 9.382813-3.015625 14.171875-23.480469 32.589844-33.675781 45.257812-38.085937-8.296875 16.875-20.738281 46.675781-25.464844 81.367187-.542968 3.996094 2.296876 7.800781 6.28125 8.417969 4.089844.636719 8.019532-2.292969 8.578126-6.394531 6.753906-49.621094 31.070312-89.894531 31.3125-90.292969 1.449218-2.367188 1.472656-5.347656.050781-7.738281zm0 0"/><path d="m477.59375 256.027344c.054688-4.140625-3.257812-7.539063-7.398438-7.589844-.035156-.003906-.066406-.003906-.097656-.003906-4.097656 0-7.445312 3.296875-7.496094 7.402344-.246093 19.328124 1.914063 35.414062 4.167969 46.742187-30.421875-22.917969-29.058593-57.914063-28.972656-59.574219.179687-3.175781-1.734375-6.1875-4.679687-7.375-3.042969-1.230468-6.632813-.289062-8.675782 2.277344-.421875.53125-41.40625 51.199219-110.273437 74.246094-.003907-.054688-.011719-.109375-.019531-.167969-2.566407-22.296875-5.476563-47.574219-2.488282-72.511719.492188-4.113281-2.441406-7.84375-6.550781-8.335937-4.117187-.496094-7.84375 2.441406-8.335937 6.550781-3.199219 26.6875-.050782 54.039062 2.480468 76.011719 2.488282 21.621093 4.839844 42.039062-.746094 48.320312-.859374.964844-2.5 2.253907-6.792968 2.265625-.035156 0-.066406 0-.097656 0-21.601563 0-43.707032-16.449218-65.707032-48.886718-19.324218-28.5-33.523437-62.441407-40.269531-80.136719-1.472656-3.871094-5.804687-5.808594-9.675781-4.335938-3.867188 1.476563-5.808594 5.808594-4.335938 9.675781 6.753906 17.71875 20.761719 51.21875 39.949219 80.332032-20.457031-3.109375-41.167969-9.046875-61.769531-17.75-13.078125-5.527344-25.410156-12.011719-36.652344-19.285156-3.476562-2.25-8.117188-1.253907-10.367188 2.226562-2.25 3.472656-1.253906 8.117188 2.222657 10.367188 11.972656 7.742187 25.082031 14.640624 38.960937 20.503906 26.503906 11.195312 53.242188 18.078125 79.53125 20.496094 21.941406 27.742187 44.800782 41.789062 68.113282 41.789062h.128906c7.632812-.019531 13.675781-2.472656 17.96875-7.292969 8.0625-9.066406 8.054687-24.710937 6.121094-44.601562 53.382812-17.027344 90.769531-49.191407 108.578124-67.191407.804688 4.1875 1.992188 8.875 3.746094 13.820313 5.640625 15.910156 18.414063 37.679687 47.222656 51.039063 5.90625 2.742187 12.386719-3.199219 10.21875-9.320313-.089843-.238281-8.460937-24.265625-8.007812-59.707031zm0 0"/></svg>