<svg height="512pt" viewBox="-14 0 512 512" width="512pt" xmlns="http://www.w3.org/2000/svg"><path d="m426.625 32.828125v63.878906c0 23.601563-19.132812 42.738281-42.738281 42.738281-23.601563 0-42.738281-19.136718-42.738281-42.738281v-63.878906h-35.722657v273.042969l-211.480469 83.921875s-11.179687 41.703125-38.160156 70.273437c-11.363281 12.03125-4.148437 31.894532 12.257813 34.066406 38.738281 5.128907 99.714843 10.367188 184.894531 10.367188 163.359375 0 209.410156-96.699219 209.410156-170.382812v-301.289063zm0 0" fill="#fad989"/><path d="m265.292969 422.285156c105.816406-31.363281 75.050781-125.585937 75.050781-125.585937l-34.917969.449219v8.722656l-211.480469 83.921875s-11.179687 41.707031-38.15625 70.273437c-11.363281 12.035156-4.152343 31.898438 12.257813 34.070313 23.261719 3.082031 54.554687 6.199219 94.289063 8.199219 30.738281-21.792969 34.507812-59.761719 102.957031-80.050782zm0 0" fill="#f6ca56"/><path d="m356.097656 40.308594c0 18.121094-14.6875 32.8125-32.808594 32.8125-18.121093 0-32.8125-14.691406-32.8125-32.8125 0-18.117188 14.691407-32.808594 32.8125-32.808594 18.121094 0 32.808594 14.691406 32.808594 32.808594zm0 0" fill="#ffeab7"/><path d="m477.296875 40.308594c0 18.121094-14.6875 32.8125-32.808594 32.8125-18.121093 0-32.8125-14.691406-32.8125-32.8125 0-18.117188 14.691407-32.808594 32.8125-32.808594 18.121094 0 32.808594 14.691406 32.808594 32.808594zm0 0" fill="#ffeab7"/><path d="m150.136719 137.011719c-80.117188 0-144.808594 66.054687-142.578125 146.679687 2.128906 77.042969 65.949218 138.828125 143.027344 138.59375 44.503906-.136718 84.210937-20.664062 110.277343-52.722656 95.316407 5.875 79.480469-72.863281 79.480469-72.863281-27.800781-169.503907-190.207031-159.6875-190.207031-159.6875zm0 0" fill="#e7896e"/><path d="m228.328125 193.546875c-27.722656-14.222656-59.324219-16.800781-88.980469-7.257813-29.660156 9.542969-53.828125 30.066407-68.050781 57.785157-11.773437 22.949219-13.90625 49.105469-6.007813 73.660156 7.898438 24.550781 24.886719 44.554687 47.835938 56.332031 19.128906 9.816406 40.933594 11.59375 61.402344 5.007813 20.46875-6.585938 37.144531-20.746094 46.960937-39.875 17.023438-33.183594 3.882813-74.03125-29.300781-91.058594-7.96875-4.085937-17.75-.941406-21.839844 7.027344-4.089844 7.972656-.945312 17.75 7.027344 21.839843 17.265625 8.859376 24.101562 30.113282 15.246094 47.378907-5.859375 11.417969-15.816406 19.871093-28.03125 23.804687-12.214844 3.929688-25.234375 2.867188-36.652344-2.992187-15.234375-7.816407-26.515625-21.101563-31.761719-37.402344-5.246093-16.304687-3.828125-33.671875 3.988281-48.910156 10.269532-20.007813 27.714844-34.824219 49.121094-41.710938 21.410156-6.890625 44.222656-5.027343 64.230469 5.238281 25.976563 13.328126 45.207031 35.976563 54.148437 63.769532 8.941407 27.792968 6.527344 57.40625-6.800781 83.378906 14.597657.902344 26.570313-.179688 36.414063-2.664062 10.359375-29.136719 10.90625-60.714844 1.273437-90.652344-11.601562-36.046875-36.539062-65.414063-70.222656-82.699219zm0 0" fill="#b24e2f"/><path d="m423.796875 169.933594v12.453125c0 4.140625 3.355469 7.5 7.5 7.5 4.140625 0 7.5-3.359375 7.5-7.5v-12.453125c0-4.140625-3.359375-7.5-7.5-7.5-4.144531 0-7.5 3.359375-7.5 7.5zm0 0"/><path d="m328.980469 169.933594v12.453125c0 4.140625 3.359375 7.5 7.5 7.5 4.144531 0 7.5-3.359375 7.5-7.5v-12.453125c0-4.140625-3.355469-7.5-7.5-7.5-4.140625 0-7.5 3.359375-7.5 7.5zm0 0"/><path d="m389.011719 174.890625c-1.683594 2.46875-4.128907 2.765625-5.125 2.765625-.996094 0-3.484375-.269531-5.121094-2.765625-2.277344-3.460937-6.925781-4.421875-10.386719-2.148437-3.460937 2.273437-4.425781 6.921874-2.152344 10.386718 3.917969 5.964844 10.523438 9.527344 17.660157 9.527344 7.140625 0 13.742187-3.5625 17.660156-9.527344 2.273437-3.464844 1.3125-8.113281-2.152344-10.386718-1.265625-.835938-6.878906-2.992188-10.382812 2.148437zm0 0"/><path d="m484.796875 40.3125c0-22.230469-18.082031-40.3125-40.308594-40.3125-22.230469 0-40.3125 18.082031-40.3125 40.3125 0 12.621094 5.835938 23.90625 14.949219 31.300781v25.09375c0 19.429688-15.808594 35.238281-35.238281 35.238281-19.429688 0-35.238281-15.808593-35.238281-35.238281v-25.09375c9.113281-7.394531 14.949218-18.679687 14.949218-31.300781 0-22.230469-18.082031-40.3125-40.308594-40.3125-22.230468 0-40.3125 18.082031-40.3125 40.3125 0 12.621094 5.835938 23.90625 14.949219 31.300781v116.238281c-16.554687-17.582031-36.753906-31.507812-60.175781-41.460937-43.898438-18.660156-83.992188-17.078125-87.824219-16.878906-40.808593.054687-78.949219 16.195312-107.417969 45.460937-28.503906 29.304688-43.582031 67.988282-42.4492182 108.925782 1.0859372 39.222656 17.3125002 75.964843 45.6875002 103.457031 9.808594 9.5 20.679687 17.515625 32.324218 23.933593-5.753906 13.03125-14.859374 29.992188-27.738281 43.628907-7.164062 7.585937-9.4375 18.421875-5.9375 28.285156 3.53125 9.945313 12.214844 16.984375 22.664063 18.367187 35.929687 4.757813 97.34375 10.429688 185.878906 10.429688 47.523438 0 88.425781-8.113281 121.570312-24.117188 29.082032-14.042968 52.121094-34.035156 68.476563-59.421874 2.242187-3.484376 1.238281-8.125-2.242187-10.367188-3.480469-2.242188-8.125-1.242188-10.367188 2.242188-14.835938 23.03125-35.828125 41.214843-62.390625 54.039062-31.09375 15.011719-69.800781 22.625-115.046875 22.625-87.71875 0-148.425781-5.601562-183.90625-10.300781-4.910156-.648438-8.835938-3.835938-10.5-8.515625-1.628906-4.597656-.617188-9.445313 2.707031-12.96875 14.136719-14.96875 24.054688-33.246094 30.328125-47.355469 18.332032 7.816406 38.175782 11.925781 58.574219 11.925781h.46875c43.925781-.136718 85.113281-19.234375 113.613281-52.542968 13.089844.523437 47.078125 2.550781 69.140625-23.003907 20.4375-23.671875 14.914063-56.011719 14.367188-58.863281-5.707031-34.710938-17.402344-64.636719-34.800781-89.179688v-126.929687c3.308593.878906 6.777343 1.355469 10.359374 1.355469 3.582032 0 7.050782-.476563 10.359376-1.355469v17.4375c0 27.703125 22.539062 50.242187 50.238281 50.242187 27.703125 0 50.238281-22.539062 50.238281-50.242187v-17.4375c3.308594.878906 6.78125 1.355469 10.363281 1.355469s7.050781-.476563 10.359375-1.355469v254.851563c0 20.328124-3.710937 40.746093-10.734375 59.046874-1.484375 3.867188.425781 8.273438 4.316407 9.691407 5.074218 1.84375 8.542968-1.332031 9.6875-4.316407 7.675781-20 11.730468-42.273437 11.730468-64.421874v-262.503907c9.113282-7.398437 14.949219-18.679687 14.949219-31.300781zm-151.804687 257.863281c.054687.273438 5.3125 27.5625-10.9375 46.207031-3.621094 4.152344-8.066407 7.582032-13.308594 10.300782 6.492187-26.570313 5.480468-54.195313-3.058594-80.738282-12.210938-37.949218-38.46875-68.871093-73.9375-87.070312-29.503906-15.136719-63.132812-17.882812-94.699219-7.726562-20.082031 6.460937-38.230469 17.917968-52.484375 33.132812-2.835937 3.023438-2.679687 7.769531.34375 10.601562 3.019532 2.832032 7.769532 2.675782 10.601563-.34375 12.519531-13.359374 28.46875-23.425781 46.132812-29.109374 27.75-8.929688 57.320313-6.519532 83.257813 6.792968 31.902344 16.371094 55.523437 44.183594 66.507812 78.320313 8.6875 27.007812 8.691406 55.25.09375 81.953125-5.8125 1.152344-12.195312 1.78125-19.15625 1.863281 9.886719-25.046875 10.8125-52.503906 2.453125-78.472656-9.554687-29.699219-30.105469-53.902344-57.863281-68.144531-21.792969-11.179688-46.632812-13.207032-69.949219-5.707032-23.316406 7.503906-42.316406 23.636719-53.496093 45.429688-8.734376 17.019531-10.316407 36.421875-4.457032 54.628906 5.859375 18.210938 18.457032 33.046875 35.476563 41.78125 13.203125 6.773438 28.25 8 42.371093 3.457031 14.125-4.546875 25.632813-14.320312 32.40625-27.519531 5.203126-10.132812 6.140626-21.699219 2.640626-32.5625-3.496094-10.867188-11-19.714844-21.132813-24.914062-4.277344-2.195313-5.972656-7.464844-3.777344-11.742188 2.195313-4.277344 7.460938-5.972656 11.742188-3.777344 29.503906 15.136719 41.1875 51.457032 26.050781 80.960938-8.902344 17.34375-24.023438 30.1875-42.582031 36.160156-18.5625 5.972656-38.335938 4.359375-55.683594-4.542969-21.164063-10.859375-36.832031-29.3125-44.117187-51.957031-7.289063-22.644531-5.320313-46.773438 5.539062-67.9375 1.894531-3.6875.4375-8.207031-3.246094-10.097656-3.6875-1.894532-8.207031-.4375-10.097656 3.25-12.691406 24.730468-14.988281 52.917968-6.476562 79.378906 8.515624 26.457031 26.820312 48.019531 51.550781 60.707031 12.613281 6.472657 26.292969 9.75 40.078125 9.75 9.0625 0 18.171875-1.417969 27.046875-4.273437 22.375-7.199219 40.605469-22.679688 51.335937-43.59375 18.914063-36.859375 4.3125-82.234375-32.550781-101.152344-11.636719-5.972656-25.964844-1.359375-31.933594 10.277344-5.972656 11.636718-1.363281 25.964844 10.273438 31.9375 6.570312 3.367187 11.4375 9.105468 13.707031 16.160156 2.265625 7.050781 1.660156 14.550781-1.710938 21.121094-4.941406 9.632812-13.34375 16.769531-23.65625 20.085937-10.308593 3.316407-21.289062 2.421875-30.929687-2.523437-13.453125-6.902344-23.414063-18.632813-28.046875-33.027344-4.628906-14.394531-3.378906-29.734375 3.523438-43.1875 9.351562-18.226562 25.246093-31.722656 44.746093-37.996094 19.5-6.277344 40.28125-4.582031 58.507813 4.769532 24.191406 12.414062 42.105468 33.507812 50.433594 59.394531 8.246093 25.632812 6.117187 52.925781-5.980469 76.949219-25.703125 31.25-63.550781 49.230468-103.980469 49.355468-35.355469.09375-68.835938-13.460937-94.378906-38.203125-25.546875-24.75-40.152344-57.8125-41.128906-93.097656-1.019532-36.855469 12.550781-71.675781 38.207031-98.054687 25.667969-26.386719 60.070312-40.917969 96.875-40.917969.152343 0 .300781-.003907.453125-.015625.074218-.003906 1.621094-.085938 4.375-.085938 11.34375 0 43.152344 1.433594 76.917968 15.785156 24.484376 10.40625 45.09375 25.496094 61.253907 44.851563 20.292969 24.300781 33.6875 55.546875 39.808593 92.867187.015626.085938.03125.175782.046876.261719zm-35.015626-257.863281c0-13.957031 11.355469-25.3125 25.3125-25.3125 13.957032 0 25.308594 11.355469 25.308594 25.3125s-11.351562 25.308594-25.308594 25.308594c-13.957031 0-25.3125-11.355469-25.3125-25.308594zm121.199219 0c0-13.957031 11.355469-25.3125 25.3125-25.3125s25.308594 11.355469 25.308594 25.3125-11.351563 25.308594-25.308594 25.308594-25.3125-11.355469-25.3125-25.308594zm0 0"/></svg>