<?xml version="1.0" encoding="iso-8859-1"?>
<!-- Generator: Adobe Illustrator 19.0.0, SVG Export Plug-In . SVG Version: 6.00 Build 0)  -->
<svg version="1.1" id="Capa_1" xmlns="http://www.w3.org/2000/svg" xmlns:xlink="http://www.w3.org/1999/xlink" x="0px" y="0px"
	 viewBox="0 0 512.001 512.001" style="enable-background:new 0 0 512.001 512.001;" xml:space="preserve">
<path style="fill:#5D6671;" d="M305.693,150.371h-32.644c-7.898,0-14.301,6.403-14.301,14.301v37.131h61.245v-37.132
	C319.995,156.773,313.592,150.371,305.693,150.371z"/>
<path style="fill:#C1C6CA;" d="M448.985,321.623c-10.017,0-18.138-8.121-18.138-18.138V194.946
	c0-67.508-54.92-122.428-122.428-122.428S185.99,127.438,185.99,194.946v53.042c0,10.017-8.12,18.137-18.137,18.137
	s-18.137-8.121-18.137-18.137v-53.042c0-87.51,71.195-158.703,158.704-158.703s158.703,71.194,158.703,158.703v108.539
	C467.122,313.503,459.002,321.623,448.985,321.623z"/>
<path style="fill:#D6D8DB;" d="M146.506,324.731L19.332,278.443C10.001,275.047,5.191,264.73,8.587,255.4l9.404-25.838
	c3.396-9.331,13.713-14.141,23.043-10.745l127.174,46.287L146.506,324.731z"/>
<path style="opacity:0.1;enable-background:new    ;" d="M167.852,266.126c10.017,0,18.137-8.121,18.137-18.137v-53.042
	c0-0.816,0.015-1.628,0.031-2.44c-12.854,7.159-25.018,15.693-36.306,25.533v29.948
	C149.714,258.005,157.835,266.126,167.852,266.126z"/>
<path style="opacity:0.1;enable-background:new    ;" d="M439.905,228.184c-2.947-2.947-5.973-5.784-9.058-8.535v83.837
	c0,10.017,8.12,18.137,18.138,18.137c10.017,0,18.137-8.12,18.137-18.137v-42.029C459.273,249.611,450.183,238.462,439.905,228.184z
	"/>
<path style="opacity:0.1;enable-background:new    ;" d="M121.284,248.025c-13.37,17.125-23.909,36.019-31.405,56.095l56.627,20.611
	l21.702-59.627L121.284,248.025z"/>
<path style="fill:#F0F1F1;" d="M482.881,378.717c0-106.872-86.637-193.51-193.51-193.51s-193.51,86.637-193.51,193.51v70.293
	h387.019L482.881,378.717L482.881,378.717z"/>
<g>
	<path style="fill:#5D6671;" d="M492.175,487.85H86.568c-6.808,0-12.326-5.519-12.326-12.326v-14.187
		c0-6.808,5.519-12.326,12.326-12.326h405.607c6.808,0,12.326,5.519,12.326,12.326v14.187
		C504.501,482.331,498.983,487.85,492.175,487.85z"/>
	<path style="fill:#5D6671;" d="M431.871,157.859c-10.697,0-21.061-5.689-26.552-15.736c-19.392-35.476-56.521-57.513-96.901-57.513
		s-77.509,22.038-96.901,57.513c-8.007,14.651-26.374,20.035-41.024,12.026c-14.649-8.007-20.034-26.374-12.027-41.024
		c29.998-54.88,87.457-88.974,149.951-88.974s119.953,34.093,149.951,88.974c8.007,14.65,2.623,33.017-12.027,41.024
		C441.741,156.665,436.771,157.859,431.871,157.859z"/>
</g>
<rect x="95.862" y="395.623" style="opacity:0.1;enable-background:new    ;" width="387.023" height="53.38"/>
<g>
	<ellipse style="fill:#F18290;" cx="208.883" cy="325.863" rx="29.7" ry="23.652"/>
	<ellipse style="fill:#F18290;" cx="369.864" cy="325.863" rx="29.7" ry="23.652"/>
</g>
<path style="opacity:0.1;enable-background:new    ;" d="M226.874,195.528c-76.203,25.991-131.011,98.187-131.011,183.189v70.293
	h142.814C177.331,358.29,201.077,232.535,226.874,195.528z"/>
<path d="M298.712,311.716c-2.358,2.707-5.763,4.259-9.341,4.259s-6.982-1.552-9.341-4.259c-2.722-3.122-7.459-3.447-10.582-0.726
	c-3.122,2.722-3.448,7.459-0.727,10.582c5.208,5.976,12.735,9.403,20.649,9.403c7.915,0,15.441-3.428,20.65-9.403
	c2.721-3.123,2.396-7.86-0.727-10.582C306.171,308.269,301.434,308.593,298.712,311.716z M492.175,441.51h-1.794v-62.792
	c0-3.334-0.082-6.71-0.246-10.032c-0.204-4.136-3.705-7.299-7.859-7.123c-4.137,0.203-7.327,3.722-7.124,7.859
	c0.151,3.078,0.228,6.206,0.228,9.296v62.792H103.362v-62.792c0-102.566,83.444-186.009,186.009-186.009
	c9.76,0,19.385,0.744,28.828,2.196c0.406,0.1,0.824,0.167,1.254,0.198c31.417,5.051,60.755,18.048,86.095,38.338
	c32.313,25.875,55.334,62.174,64.823,102.207c0.956,4.03,4.997,6.521,9.028,5.568c4.03-0.955,6.523-4.997,5.568-9.027
	c-2.561-10.803-6.033-21.354-10.345-31.541v-105.7c0-17.753-2.805-35.22-8.336-51.972c4.614-10.385,4.524-22.727-1.335-33.446
	c-31.314-57.288-91.295-92.877-156.533-92.877c-39.927,0-79.175,13.626-110.512,38.368c-3.251,2.567-3.806,7.283-1.239,10.534
	c2.567,3.252,7.284,3.804,10.534,1.239C235.904,44.131,271.85,31.65,308.418,31.65c59.751,0,114.688,32.598,143.371,85.071
	c6.01,10.998,1.954,24.835-9.044,30.847c-3.34,1.826-7.1,2.791-10.874,2.791c-8.329,0-15.981-4.534-19.971-11.834
	c-20.707-37.882-60.359-61.415-103.482-61.415s-82.775,23.533-103.483,61.416c-2.911,5.327-7.723,9.202-13.549,10.91
	c-5.825,1.705-11.968,1.045-17.296-1.869c-10.997-6.011-15.054-19.848-9.043-30.846c5.099-9.328,11.127-18.188,17.919-26.334
	c2.652-3.182,2.224-7.911-0.958-10.563c-3.181-2.651-7.911-2.224-10.564,0.958c-7.414,8.893-13.995,18.564-19.56,28.746
	c-5.859,10.718-5.949,23.06-1.335,33.444c-5.531,16.754-8.336,34.221-8.336,51.973v46.999c-1.316,1.415-2.614,2.847-3.89,4.3
	l-94.725-34.476c-6.395-2.327-13.314-2.026-19.482,0.851c-6.168,2.876-10.847,7.981-13.174,14.377l-9.404,25.838
	c-4.805,13.202,2.026,27.852,15.228,32.657l81.859,29.793c-6.651,19.949-10.264,41.275-10.264,63.431v62.792h-1.794
	c-10.932,0-19.826,8.894-19.826,19.826v14.188c0,10.933,8.894,19.826,19.826,19.826h405.608c10.932,0,19.826-8.894,19.826-19.826
	v-14.188C512.001,450.404,503.107,441.51,492.175,441.51z M449.941,160.73c1.768-0.966,3.425-2.057,4.972-3.251
	c3.126,12.199,4.709,24.751,4.709,37.467v76.966c-6.251-9.947-13.372-19.356-21.275-28.097v-48.868
	c0-10.056-1.166-20.012-3.451-29.725C440.143,164.792,445.293,163.271,449.941,160.73z M312.495,179.064
	c-7.654-0.892-15.374-1.356-23.122-1.356c-7.82,0-15.533,0.464-23.123,1.338v-14.375c0-3.75,3.051-6.801,6.801-6.801h32.644
	c3.75,0,6.8,3.051,6.8,6.801V179.064z M193.49,194.947c0-10.852,1.53-21.57,4.53-31.921c8.583-3.145,15.655-9.209,20.079-17.304
	c18.075-33.068,52.684-53.61,90.32-53.61s72.245,20.542,90.32,53.61c4.449,8.139,11.646,14.192,20.077,17.298
	c3.001,10.353,4.531,21.073,4.531,31.927v33.935c-2.74-2.455-5.544-4.845-8.424-7.15c-25.448-20.378-55.603-34.182-87.429-40.352
	v-16.708c0-12.021-9.78-21.801-21.8-21.801h-32.644c-12.021,0-21.801,9.78-21.801,21.801v16.678
	c-20.526,3.957-39.955,11.033-57.758,20.737L193.49,194.947L193.49,194.947z M157.214,194.947c0-12.715,1.583-25.268,4.71-37.467
	c1.547,1.194,3.204,2.285,4.971,3.251c4.723,2.582,9.833,4.085,15.042,4.506c-2.283,9.708-3.448,19.659-3.448,29.71v16.198
	c-7.453,4.949-14.561,10.376-21.275,16.247V194.947z M21.897,271.396c-5.429-1.977-8.239-8.001-6.263-13.431l9.404-25.838
	c0.957-2.631,2.881-4.73,5.418-5.913c2.536-1.185,5.381-1.308,8.012-0.35l89.849,32.702c-9.789,13.088-18.017,27.408-24.418,42.675
	L21.897,271.396z M497.001,475.524c0,2.661-2.165,4.826-4.826,4.826H86.568c-2.661,0-4.826-2.165-4.826-4.826v-14.188
	c0-2.661,2.165-4.826,4.826-4.826h405.607c2.661,0,4.826,2.165,4.826,4.826V475.524z M204.552,300.12c0,4.143,3.358,7.5,7.5,7.5
	c4.142,0,7.5-3.357,7.5-7.5c0-3.659,2.977-6.636,6.637-6.636c3.66,0,6.637,2.977,6.637,6.636c0,4.143,3.358,7.5,7.5,7.5
	s7.5-3.357,7.5-7.5c0-11.93-9.706-21.636-21.637-21.636C214.258,278.485,204.552,288.191,204.552,300.12z M330.918,300.12
	c0,4.143,3.358,7.5,7.5,7.5s7.5-3.357,7.5-7.5c0-3.659,2.977-6.636,6.637-6.636c3.659,0,6.636,2.977,6.636,6.636
	c0,4.143,3.358,7.5,7.5,7.5s7.5-3.357,7.5-7.5c0-11.93-9.706-21.636-21.636-21.636C340.624,278.485,330.918,288.191,330.918,300.12z
	"/>
<g>
</g>
<g>
</g>
<g>
</g>
<g>
</g>
<g>
</g>
<g>
</g>
<g>
</g>
<g>
</g>
<g>
</g>
<g>
</g>
<g>
</g>
<g>
</g>
<g>
</g>
<g>
</g>
<g>
</g>
</svg>
