<?xml version="1.0" encoding="iso-8859-1"?>
<!-- Generator: Adobe Illustrator 19.0.0, SVG Export Plug-In . SVG Version: 6.00 Build 0)  -->
<svg version="1.1" id="Capa_1" xmlns="http://www.w3.org/2000/svg" xmlns:xlink="http://www.w3.org/1999/xlink" x="0px" y="0px"
	 viewBox="0 0 472.095 472.095" style="enable-background:new 0 0 472.095 472.095;" xml:space="preserve">
<path style="fill:#B9B9B9;" d="M236.048,104.095c-2.4,0-4.673-1.078-6.192-2.936l-72-88c-2.744-3.463-2.162-8.494,1.3-11.239
	c3.388-2.685,8.296-2.193,11.084,1.111l65.808,80.432l65.808-80.432c2.744-3.463,7.776-4.045,11.239-1.3
	c3.463,2.744,4.045,7.776,1.3,11.239c-0.051,0.064-0.102,0.127-0.155,0.19l-72,88C240.72,103.017,238.447,104.095,236.048,104.095
	L236.048,104.095z"/>
<path style="fill:#3B869E;" d="M220.048,72.095h32c17.673,0,32,14.327,32,32v24l0,0h-96l0,0v-24
	C188.048,86.422,202.374,72.095,220.048,72.095z"/>
<path style="fill:#1F6C8C;" d="M188.048,104.095v8h96v-8c-0.035-2.704-0.414-5.392-1.128-8h-93.744
	C188.461,98.703,188.082,101.391,188.048,104.095z"/>
<path style="fill:#3B869E;" d="M44.048,424.095h32v48h-32V424.095z"/>
<path style="fill:#1F6C8C;" d="M44.048,424.095h32v32h-32V424.095z"/>
<path style="fill:#3B869E;" d="M404.048,424.095h32v48h-32V424.095z"/>
<path style="fill:#1F6C8C;" d="M404.048,424.095h32v32h-32V424.095z"/>
<g>
	<path style="fill:#EA9D2D;" d="M76.048,112.095h360c17.673,0,32,14.327,32,32v264c0,17.673-14.327,32-32,32h-360
		c-39.764,0-72-32.236-72-72l0,0v-184C4.048,144.331,36.283,112.095,76.048,112.095z"/>
	<path style="fill:#EA9D2D;" d="M332.048,336.095h136l0,0v72c0,17.673-14.327,32-32,32h-104l0,0V336.095L332.048,336.095z"/>
</g>
<path style="fill:#FBB540;" d="M76.048,112.095h256l0,0v328l0,0h-256c-39.764,0-72-32.236-72-72l0,0v-184
	C4.048,144.331,36.283,112.095,76.048,112.095z"/>
<circle style="fill:#B9B9B9;" cx="396.048" cy="176.095" r="32"/>
<g>
	<path style="fill:#D9D9D9;" d="M393.336,144.215c-17.609,1.508-30.66,17.006-29.152,34.615c0.539,6.287,2.924,12.274,6.856,17.209
		l50.608-39C415.072,148.145,404.358,143.292,393.336,144.215z"/>
	<path style="fill:#D9D9D9;" d="M364.048,368.095h72v40h-72V368.095z"/>
</g>
<path style="fill:#8ACED8;" d="M332.048,240.095h136v96h-136V240.095z"/>
<path style="fill:#B3E4E8;" d="M84.048,144.095h168c26.51,0,48,21.49,48,48v168c0,26.51-21.49,48-48,48h-168
	c-26.51,0-48-21.49-48-48v-168C36.048,165.586,57.538,144.095,84.048,144.095z"/>
<g>
	<path style="fill:#6FBBC6;" d="M220.048,368.095h16v16h-16V368.095z"/>
	<path style="fill:#6FBBC6;" d="M252.048,368.095h16v16h-16V368.095z"/>
	<path style="fill:#6FBBC6;" d="M356.048,264.095h16v16h-16V264.095z"/>
	<path style="fill:#6FBBC6;" d="M388.048,264.095h16v16h-16V264.095z"/>
	<path style="fill:#6FBBC6;" d="M420.048,264.095h16v16h-16V264.095z"/>
	<path style="fill:#6FBBC6;" d="M356.048,296.095h16v16h-16V296.095z"/>
	<path style="fill:#6FBBC6;" d="M388.048,296.095h16v16h-16V296.095z"/>
	<path style="fill:#6FBBC6;" d="M420.048,296.095h16v16h-16V296.095z"/>
</g>
<g>
</g>
<g>
</g>
<g>
</g>
<g>
</g>
<g>
</g>
<g>
</g>
<g>
</g>
<g>
</g>
<g>
</g>
<g>
</g>
<g>
</g>
<g>
</g>
<g>
</g>
<g>
</g>
<g>
</g>
</svg>
